<?xml version="1.0" encoding="UTF-8" standalone="no"?>
<svg
   width="74.988701mm"
   height="74.987152mm"
   viewBox="0 0 74.988701 74.987152"
   version="1.1"
   id="svg4645"
   inkscape:version="1.1-alpha (65d249f, 2021-01-17)"
   sodipodi:docname="light-theme.svg"
   xmlns:inkscape="http://www.inkscape.org/namespaces/inkscape"
   xmlns:sodipodi="http://sodipodi.sourceforge.net/DTD/sodipodi-0.dtd"
   xmlns="http://www.w3.org/2000/svg"
   xmlns:svg="http://www.w3.org/2000/svg">
  <sodipodi:namedview
     id="namedview4647"
     pagecolor="#ffffff"
     bordercolor="#999999"
     borderopacity="1"
     objecttolerance="10.0"
     gridtolerance="10.0"
     guidetolerance="10.0"
     inkscape:pageshadow="0"
     inkscape:pageopacity="0"
     inkscape:pagecheckerboard="0"
     inkscape:document-units="mm"
     showgrid="false"
     inkscape:zoom="0.46057099"
     inkscape:cx="79.249455"
     inkscape:cy="468.98308"
     inkscape:window-width="1366"
     inkscape:window-height="691"
     inkscape:window-x="0"
     inkscape:window-y="0"
     inkscape:window-maximized="1"
     inkscape:current-layer="layer1"
     inkscape:snap-page="true" />
  <defs
     id="defs4642">
    <inkscape:path-effect
       effect="spiro"
       id="path-effect5904"
       is_visible="true"
       lpeversion="1" />
    <inkscape:path-effect
       effect="spiro"
       id="path-effect5898"
       is_visible="true"
       lpeversion="1" />
    <inkscape:path-effect
       effect="spiro"
       id="path-effect5892"
       is_visible="true"
       lpeversion="1" />
    <inkscape:path-effect
       effect="spiro"
       id="path-effect5699"
       is_visible="true"
       lpeversion="1" />
  </defs>
  <g
     inkscape:label="Layer 1"
     inkscape:groupmode="layer"
     id="layer1"
     transform="translate(-56.938168,-113.22426)">
    <g
       id="g6811"
       transform="matrix(0.68808381,0,0,0.68808381,12.672172,73.63493)"
       style="fill:#999999">
      <path
         id="path5900"
         style="color:#000000;fill:#999999;stroke-width:3.32964;stroke-linecap:round"
         d="m 536.66406,329.17188 a 6.6592849,6.6592849 0 0 0 -4.70703,1.95117 l -39.4082,39.41015 a 68.444651,68.444651 0 0 1 9.41601,9.41602 l 39.40821,-39.41016 a 6.6592849,6.6592849 0 0 0 0,-9.41601 6.6592849,6.6592849 0 0 0 -4.70899,-1.95117 z m -176.17968,0.084 a 6.6592849,6.6592849 0 0 0 -3.66602,1.86719 6.6592849,6.6592849 0 0 0 0,9.41601 l 39.4668,39.4668 a 68.444651,68.444651 0 0 1 9.41601,-9.41406 l -39.46679,-39.46875 a 6.6592849,6.6592849 0 0 0 -5.75,-1.86719 z m 141.41992,137.541 a 68.444651,68.444651 0 0 1 -9.41602,9.41796 l 39.46875,39.46875 a 6.6592849,6.6592849 0 0 0 9.41602,0 6.6592849,6.6592849 0 0 0 0,-9.41601 z m -105.61914,0.002 -39.4668,39.46875 a 6.6592849,6.6592849 0 0 0 0,9.41601 6.6592849,6.6592849 0 0 0 9.41602,0 l 39.46679,-39.46875 a 68.444651,68.444651 0 0 1 -9.41601,-9.41601 z"
         transform="scale(0.26458333)" />
      <path
         id="path5888"
         style="color:#000000;fill:#999999;stroke-width:3.61561;stroke-linecap:round"
         d="m 449.0918,281.69531 a 7.2312193,7.2312193 0 0 0 -7.23047,7.23047 v 66.41992 a 68.444651,68.444651 0 0 1 7.23242,-0.38672 68.444651,68.444651 0 0 1 7.23047,0.38282 v -66.41602 a 7.2312193,7.2312193 0 0 0 -7.23242,-7.23047 z M 314.61523,416.17188 a 7.2312193,7.2312193 0 0 0 -7.23046,7.23046 7.2312193,7.2312193 0 0 0 7.23046,7.23243 h 66.42188 a 68.444651,68.444651 0 0 1 -0.38672,-7.23243 68.444651,68.444651 0 0 1 0.38672,-7.23046 z m 202.53907,0 a 68.444651,68.444651 0 0 1 0.38476,7.23046 68.444651,68.444651 0 0 1 -0.38672,7.23243 h 66.42383 a 7.2312193,7.2312193 0 0 0 7.23047,-7.23243 7.2312193,7.2312193 0 0 0 -7.23047,-7.23046 z m -75.29297,75.28906 v 66.41797 a 7.2312193,7.2312193 0 0 0 7.23047,7.23242 7.2312193,7.2312193 0 0 0 7.23242,-7.23242 v -66.41797 a 68.444651,68.444651 0 0 1 -7.23047,0.38672 68.444651,68.444651 0 0 1 -7.23242,-0.38672 z"
         transform="scale(0.26458333)" />
      <circle
         style="opacity:1;fill:#999999;fill-opacity:1;stroke:none;stroke-width:0.799999;stroke-linecap:round;stroke-linejoin:round;stroke-dashoffset:0.0755906"
         id="path4900"
         cx="118.82288"
         cy="112.02538"
         r="15.294284" />
    </g>
  </g>
</svg>
