<?xml version="1.0" encoding="UTF-8" standalone="no"?>
<svg
   width="55.20998mm"
   height="82.735764mm"
   viewBox="0 0 55.20998 82.735764"
   version="1.1"
   id="svg5"
   inkscape:version="1.1-alpha (65d249f, 2021-01-17)"
   sodipodi:docname="network-err.svg"
   xmlns:inkscape="http://www.inkscape.org/namespaces/inkscape"
   xmlns:sodipodi="http://sodipodi.sourceforge.net/DTD/sodipodi-0.dtd"
   xmlns="http://www.w3.org/2000/svg"
   xmlns:svg="http://www.w3.org/2000/svg">
  <sodipodi:namedview
     id="namedview7"
     pagecolor="#ffffff"
     bordercolor="#999999"
     borderopacity="1"
     objecttolerance="10.0"
     gridtolerance="10.0"
     guidetolerance="10.0"
     inkscape:pageshadow="0"
     inkscape:pageopacity="0"
     inkscape:pagecheckerboard="0"
     inkscape:document-units="mm"
     showgrid="false"
     inkscape:snap-intersection-paths="false"
     inkscape:object-paths="false"
     inkscape:zoom="0.2302855"
     inkscape:cx="-330.02512"
     inkscape:cy="-156.32769"
     inkscape:window-width="1366"
     inkscape:window-height="691"
     inkscape:window-x="0"
     inkscape:window-y="0"
     inkscape:window-maximized="1"
     inkscape:current-layer="g2888"
     inkscape:object-nodes="false" />
  <defs
     id="defs2">
    <inkscape:path-effect
       effect="spiro"
       id="path-effect1884"
       is_visible="true"
       lpeversion="1" />
    <inkscape:path-effect
       effect="spiro"
       id="path-effect1880"
       is_visible="true"
       lpeversion="1" />
    <inkscape:path-effect
       effect="bspline"
       id="path-effect1876"
       is_visible="true"
       lpeversion="1"
       weight="33.333333"
       steps="2"
       helper_size="0"
       apply_no_weight="true"
       apply_with_weight="true"
       only_selected="false" />
    <inkscape:path-effect
       effect="bspline"
       id="path-effect1872"
       is_visible="true"
       lpeversion="1"
       weight="33.333333"
       steps="2"
       helper_size="0"
       apply_no_weight="true"
       apply_with_weight="true"
       only_selected="false" />
    <inkscape:path-effect
       effect="bspline"
       id="path-effect1868"
       is_visible="true"
       lpeversion="1"
       weight="33.333333"
       steps="2"
       helper_size="0"
       apply_no_weight="true"
       apply_with_weight="true"
       only_selected="false" />
    <inkscape:path-effect
       effect="bspline"
       id="path-effect1864"
       is_visible="true"
       lpeversion="1"
       weight="33.333333"
       steps="2"
       helper_size="0"
       apply_no_weight="true"
       apply_with_weight="true"
       only_selected="false" />
    <inkscape:path-effect
       effect="bspline"
       id="path-effect1860"
       is_visible="true"
       lpeversion="1"
       weight="33.333333"
       steps="2"
       helper_size="0"
       apply_no_weight="true"
       apply_with_weight="true"
       only_selected="false" />
    <inkscape:path-effect
       effect="spiro"
       id="path-effect2139"
       is_visible="true"
       lpeversion="1" />
    <inkscape:path-effect
       effect="spiro"
       id="path-effect2134"
       is_visible="true"
       lpeversion="1" />
    <inkscape:path-effect
       effect="bspline"
       id="path-effect2129"
       is_visible="true"
       lpeversion="1"
       weight="33.333333"
       steps="2"
       helper_size="0"
       apply_no_weight="true"
       apply_with_weight="true"
       only_selected="false" />
    <inkscape:path-effect
       effect="bspline"
       id="path-effect2119"
       is_visible="true"
       lpeversion="1"
       weight="33.333333"
       steps="2"
       helper_size="0"
       apply_no_weight="true"
       apply_with_weight="true"
       only_selected="false" />
    <inkscape:path-effect
       effect="bspline"
       id="path-effect2109"
       is_visible="true"
       lpeversion="1"
       weight="33.333333"
       steps="2"
       helper_size="0"
       apply_no_weight="true"
       apply_with_weight="true"
       only_selected="false" />
    <inkscape:path-effect
       effect="bspline"
       id="path-effect2099"
       is_visible="true"
       lpeversion="1"
       weight="33.333333"
       steps="2"
       helper_size="0"
       apply_no_weight="true"
       apply_with_weight="true"
       only_selected="false" />
    <inkscape:path-effect
       effect="bspline"
       id="path-effect2089"
       is_visible="true"
       lpeversion="1"
       weight="33.333333"
       steps="2"
       helper_size="0"
       apply_no_weight="true"
       apply_with_weight="true"
       only_selected="false" />
    <inkscape:path-effect
       effect="spiro"
       id="path-effect11144"
       is_visible="true"
       lpeversion="1" />
    <inkscape:path-effect
       effect="spiro"
       id="path-effect7157"
       is_visible="true"
       lpeversion="1" />
    <inkscape:path-effect
       effect="spiro"
       id="path-effect7040"
       is_visible="true"
       lpeversion="1" />
    <inkscape:path-effect
       effect="spiro"
       id="path-effect6904"
       is_visible="true"
       lpeversion="1" />
    <inkscape:path-effect
       effect="spiro"
       id="path-effect6630"
       is_visible="true"
       lpeversion="1" />
    <inkscape:path-effect
       effect="spiro"
       id="path-effect5916"
       is_visible="true"
       lpeversion="1" />
    <inkscape:path-effect
       effect="spiro"
       id="path-effect5797"
       is_visible="true"
       lpeversion="1" />
    <inkscape:path-effect
       effect="spiro"
       id="path-effect5446"
       is_visible="true"
       lpeversion="1" />
    <inkscape:path-effect
       effect="spiro"
       id="path-effect5383"
       is_visible="true"
       lpeversion="1" />
    <inkscape:path-effect
       effect="bspline"
       id="path-effect5346"
       is_visible="true"
       lpeversion="1"
       weight="33.333333"
       steps="2"
       helper_size="0"
       apply_no_weight="true"
       apply_with_weight="true"
       only_selected="false" />
    <inkscape:path-effect
       effect="bspline"
       id="path-effect5336"
       is_visible="true"
       lpeversion="1"
       weight="33.333333"
       steps="2"
       helper_size="0"
       apply_no_weight="true"
       apply_with_weight="true"
       only_selected="false" />
    <inkscape:path-effect
       effect="bspline"
       id="path-effect5326"
       is_visible="true"
       lpeversion="1"
       weight="33.333333"
       steps="2"
       helper_size="0"
       apply_no_weight="true"
       apply_with_weight="true"
       only_selected="false" />
    <inkscape:path-effect
       effect="bspline"
       id="path-effect5115"
       is_visible="true"
       lpeversion="1"
       weight="33.333333"
       steps="2"
       helper_size="0"
       apply_no_weight="true"
       apply_with_weight="true"
       only_selected="false" />
    <inkscape:path-effect
       effect="skeletal"
       id="path-effect2851"
       is_visible="true"
       lpeversion="1"
       pattern="#path914"
       copytype="single_stretched"
       prop_scale="0.80560085"
       scale_y_rel="false"
       spacing="0"
       normal_offset="0"
       tang_offset="0"
       prop_units="false"
       vertical_pattern="false"
       hide_knot="false"
       fuse_tolerance="0" />
    <inkscape:path-effect
       effect="skeletal"
       id="path-effect2686"
       is_visible="true"
       lpeversion="1"
       pattern="M 0,0 H 1"
       copytype="single_stretched"
       prop_scale="1"
       scale_y_rel="false"
       spacing="0"
       normal_offset="0"
       tang_offset="0"
       prop_units="false"
       vertical_pattern="false"
       hide_knot="false"
       fuse_tolerance="0" />
    <inkscape:path-effect
       effect="spiro"
       id="path-effect2111"
       is_visible="true"
       lpeversion="1" />
    <inkscape:path-effect
       effect="spiro"
       id="path-effect1671"
       is_visible="true"
       lpeversion="1" />
    <inkscape:path-effect
       effect="skeletal"
       id="path-effect1455"
       is_visible="true"
       lpeversion="1"
       pattern="M 0,0 H 1"
       copytype="single_stretched"
       prop_scale="1"
       scale_y_rel="false"
       spacing="0"
       normal_offset="0"
       tang_offset="0"
       prop_units="false"
       vertical_pattern="false"
       hide_knot="false"
       fuse_tolerance="0" />
    <inkscape:path-effect
       effect="bspline"
       id="path-effect916"
       is_visible="true"
       lpeversion="1"
       weight="33.333333"
       steps="2"
       helper_size="0"
       apply_no_weight="true"
       apply_with_weight="true"
       only_selected="false" />
    <inkscape:path-effect
       effect="bspline"
       id="path-effect867"
       is_visible="true"
       lpeversion="1"
       weight="33.333333"
       steps="2"
       helper_size="0"
       apply_no_weight="true"
       apply_with_weight="true"
       only_selected="false" />
    <filter
       inkscape:collect="always"
       style="color-interpolation-filters:sRGB"
       id="filter3516"
       x="-0.017056991"
       y="-0.011012393"
       width="1.034114"
       height="1.0220248">
      <feGaussianBlur
         inkscape:collect="always"
         stdDeviation="0.37242137"
         id="feGaussianBlur3518" />
    </filter>
  </defs>
  <g
     inkscape:label="Layer 1"
     inkscape:groupmode="layer"
     id="layer1"
     transform="translate(-77.395012,-108.46298)">
    <g
       id="g2888">
      <g
         id="g1856"
         transform="translate(-152.85594,1.1501368)"
         style="fill:#c6afe9;fill-opacity:0.84598494;filter:url(#filter3516)">
        <path
           style="fill:#c6afe9;stroke:none;stroke-width:0.264583px;stroke-linecap:butt;stroke-linejoin:miter;stroke-opacity:1;fill-opacity:0.84598494"
           d="m 252.75282,185.54296 c 0.28669,-0.2367 0.86004,-0.71006 1.25096,-2.19074 0.39092,-1.48068 0.59944,-3.96884 0.8953,-5.28884 0.29585,-1.32 0.67887,-1.47148 0.63338,-2.52949 -0.0455,-1.05802 -0.51944,-3.02284 -0.63949,-4.00543 -0.12005,-0.98259 0.1136,-0.98259 0.19447,-1.99931 0.0809,-1.01671 0.009,-3.05033 0.0195,-4.10679 0.0102,-1.05646 0.10241,-1.13546 0.0622,-2.19575 -0.0402,-1.0603 -0.21267,-3.10213 -0.17118,-4.12321 0.0415,-1.02108 0.29672,-1.02108 0.24376,-2.0176 -0.053,-0.99651 -0.4139,-2.98977 -0.38487,-3.98524 0.029,-0.99546 0.44782,-0.99279 0.54471,-1.95697 0.0969,-0.96418 -0.12789,-2.89541 -1.53888,-3.07342 -1.41099,-0.17801 -4.00812,1.39753 -5.3227,3.26047 -1.31458,1.86294 -1.34648,4.01287 -1.55008,5.14194 -0.2036,1.12906 -0.57907,1.23754 -1.41278,0.10384 -0.8337,-1.1337 -2.12558,-3.50984 -2.36833,-5.54456 -0.24276,-2.03472 0.56384,-3.7277 0.48574,-4.55476 -0.0781,-0.82706 -1.04116,-0.78805 -2.21789,-0.0513 -1.17674,0.73677 -2.56682,2.17123 -3.49917,3.25211 -0.93236,1.08089 -1.40691,1.8081 -1.62023,1.15493 -0.21333,-0.65317 -0.16546,-2.68685 0.6442,-4.8791 0.80965,-2.19226 2.38106,-4.54276 2.22269,-5.51536 -0.15838,-0.9726 -2.04674,-0.56717 -3.35804,0.12898 -1.31131,0.69615 -2.04527,1.68288 -2.51896,2.5425 -0.47369,0.85962 -0.68707,1.59194 -0.96126,1.20896 -0.27419,-0.38298 -0.6093,-1.88136 -0.70568,-3.53724 -0.0964,-1.65588 0.046,-3.46911 1.14934,-5.26576 1.10332,-1.79664 3.16739,-3.57633 5.59181,-4.68165 2.42441,-1.10532 5.20882,-1.53621 6.74745,-1.75165 1.53863,-0.21543 1.83138,-0.21543 1.16195,-0.7148 -0.66943,-0.49937 -2.30103,-1.49826 -4.04608,-1.75397 -1.74504,-0.2557 -3.60331,0.23202 -5.13427,1.01674 -1.53096,0.78473 -2.73437,1.86639 -3.38913,2.2957 -0.65476,0.42931 -0.76097,0.20593 -0.41135,-1.14904 0.34962,-1.35497 1.15524,-3.84129 2.32748,-5.82177 1.17223,-1.98047 2.71092,-3.45482 4.49924,-4.54764 1.78831,-1.09281 3.82597,-1.80398 5.7942,-2.06388 1.96822,-0.2599 3.86677,-0.0686 5.3515,0.29792 1.48473,0.36652 2.55555,0.90811 3.10007,0.99539 0.54452,0.0873 0.56305,-0.2798 0.12287,-1.33559 -0.44019,-1.05579 -1.33922,-2.80025 -2.6585,-3.93373 -1.31928,-1.13349 -3.05885,-1.65571 -3.94914,-2.23498 -0.89029,-0.57926 -0.93096,-1.21572 0.36154,-1.24718 1.2925,-0.0315 3.91777,0.54228 5.90481,1.3132 1.98703,0.77092 3.33572,1.73882 4.23297,3.04199 0.89725,1.30317 1.34322,2.94141 1.70371,3.80435 0.36049,0.86294 0.63523,0.95074 1.88235,0.63087 1.24711,-0.31987 3.46666,-1.04725 6.14658,-1.24755 2.67992,-0.2003 5.81993,0.12639 8.29263,1.5022 2.4727,1.37581 4.27803,3.80037 5.49727,5.86634 1.21924,2.06597 1.85243,3.77321 2.04072,4.5689 0.18828,0.79568 -0.0686,0.67995 -1.1609,-0.13056 -1.09235,-0.81052 -3.02011,-2.31584 -5.23214,-2.63766 -2.21202,-0.32181 -4.70803,0.54017 -4.70757,1.21335 4.6e-4,0.67318 2.49717,1.1574 4.28281,2.01129 1.78563,0.85389 2.86015,2.07716 3.76631,3.54433 0.90616,1.46716 1.64403,3.1781 1.99725,4.93164 0.35321,1.75353 0.32192,3.54963 0.23611,4.82524 -0.0858,1.27561 -0.22609,2.03073 -0.69208,1.65724 -0.466,-0.37349 -1.25788,-1.87566 -2.83856,-3.13516 -1.58068,-1.25949 -3.9502,-2.27608 -4.30045,-1.55766 -0.35024,0.71841 1.31891,3.17159 2.20154,5.03771 0.88264,1.86612 0.97893,3.14511 0.95904,4.10677 -0.0199,0.96167 -0.1559,1.60603 -0.86092,1.2788 -0.70503,-0.32723 -1.97931,-1.62609 -2.78957,-1.07437 -0.81025,0.55173 -1.15615,2.95402 -1.99243,3.49567 -0.83629,0.54165 -2.1632,-0.77737 -3.6257,-1.94655 -1.4625,-1.16918 -3.06054,-2.1884 -4.51343,-2.76313 -1.4529,-0.57473 -2.76054,-0.70478 -3.42397,-0.60982 -0.66343,0.095 -0.68233,0.41472 -0.82768,1.20966 -0.14535,0.79494 -0.41711,2.06504 -0.44377,2.78524 -0.0267,0.7202 0.19143,0.89042 0.21208,2.08056 0.0206,1.19015 -0.15583,3.40011 -0.0719,4.50499 0.0839,1.10488 0.42795,1.10488 0.46261,2.19512 0.0347,1.09023 -0.23973,3.2704 -0.27789,4.38191 -0.0382,1.1115 0.15959,1.15447 0.095,2.0992 -0.0646,0.94473 -0.39127,2.791 -0.38343,3.82461 0.008,1.03362 0.34983,1.25454 0.36915,2.41775 0.0193,1.1632 -0.28367,3.26858 -0.24316,4.2685 0.0405,0.99992 0.42431,0.89461 0.70831,2.0942 0.28399,1.19959 0.46832,3.70364 0.89065,5.12988 0.42233,1.42625 1.08233,1.77475 1.25609,2.01894 0.17377,0.24419 -0.1385,0.38427 -1.77825,0.43351 -1.63975,0.0493 -4.60699,0.008 -6.29604,-0.0539 -1.68906,-0.0615 -2.09992,-0.14276 -2.3055,-0.18344 -0.20559,-0.0407 -0.20566,-0.0403 0.081,-0.27695 z"
           id="path1820"
           inkscape:original-d="m 252.46612,185.77965 c 0.57363,-0.4731 1.14698,-0.94646 1.72008,-1.42009 0.20879,-2.488 0.4173,-4.97616 0.62556,-7.46463 0.3833,-0.15123 0.76632,-0.30271 1.14909,-0.45447 -0.4737,-1.96463 -0.94764,-3.92946 -1.42186,-5.89459 0.23393,2.7e-4 0.46758,2.7e-4 0.70097,0 -0.0714,-2.03344 -0.14304,-4.06706 -0.21496,-6.10098 0.0924,-0.0787 0.18457,-0.1577 0.27645,-0.23695 -0.17224,-2.04165 -0.34473,-4.08348 -0.51749,-6.12562 0.2555,2.7e-4 0.51073,2.7e-4 0.7657,0 -0.36069,-1.99307 -0.72163,-3.98633 -1.08283,-5.97989 0.41906,0.003 0.83785,0.006 1.25638,0.008 -0.22452,-1.93105 -0.44931,-3.86228 -0.67435,-5.79381 -2.59697,1.57585 -5.19411,3.15138 -7.79155,4.72668 -0.0316,2.15028 -0.0636,4.30021 -0.0957,6.44992 -0.37521,0.10874 -0.75068,0.21721 -1.12642,0.32542 -1.29167,-2.37597 -2.58355,-4.75211 -3.87572,-7.12856 0.80689,-1.69279 1.61348,-3.38577 2.41983,-5.07905 -0.96284,0.0393 -1.92591,0.0783 -2.88925,0.11705 -1.38987,1.43477 -2.77995,2.86923 -4.17032,4.30344 -0.4743,0.7275 -0.94885,1.45471 -1.42367,2.18167 0.0481,-2.03349 0.096,-4.06717 0.14361,-6.10115 1.57174,-2.35033 3.14315,-4.70083 4.71433,-7.05165 -1.88817,0.40572 -3.77653,0.81115 -5.66519,1.21632 -0.73372,0.98704 -1.46768,1.97377 -2.20192,2.96026 -0.21313,0.73262 -0.42651,1.46494 -0.64016,2.19702 -0.33485,-1.49817 -0.66995,-2.99655 -1.00532,-4.49521 0.14269,-1.81304 0.2851,-3.62627 0.42726,-5.4398 2.06443,-1.7795 4.12851,-3.55918 6.19236,-5.33917 2.78478,-0.43064 5.56919,-0.86154 8.35338,-1.2927 0.29302,2.6e-4 0.58577,2.6e-4 0.87826,0 -1.6314,-0.99866 -3.263,-1.99755 -4.89489,-2.99673 -1.85807,0.488 -3.71634,0.97572 -5.5749,1.46318 -1.20319,1.08196 -2.4066,2.16362 -3.6103,3.24503 -0.10596,-0.22312 -0.21217,-0.4465 -0.31865,-0.67014 0.80592,-2.48615 1.61155,-4.97247 2.41693,-7.4591 1.53903,-1.47415 3.07772,-2.9485 4.61619,-4.42315 2.03801,-0.71093 4.07567,-1.4221 6.11311,-2.13355 1.89888,0.19157 3.79743,0.38287 5.69574,0.5739 1.07112,0.54187 2.14194,1.08346 3.21251,1.62479 0.0188,-0.36685 0.0373,-0.73394 0.0556,-1.1013 -0.89881,-1.74428 -1.79785,-3.48874 -2.69718,-5.23351 -1.73938,-0.52198 -3.47895,-1.04421 -5.21883,-1.5667 -0.0404,-0.63622 -0.0811,-1.27267 -0.122,-1.90941 2.62564,0.57403 5.25091,1.14777 7.87596,1.72125 1.34902,0.96821 2.69772,1.93611 4.04618,2.90377 0.44625,1.63858 0.89222,3.27682 1.33793,4.91483 0.27503,0.0881 0.54978,0.17588 0.82428,0.26343 2.21989,-0.72713 4.43943,-1.45451 6.65875,-2.18216 3.1404,0.32696 6.28041,0.65365 9.42021,0.98008 1.80567,2.42492 3.61099,4.84949 5.41609,7.27383 0.63348,1.70758 1.26668,3.41482 1.89962,5.12183 -0.25657,-0.11547 -0.5134,-0.2312 -0.7705,-0.34719 -1.92758,-1.50512 -3.85534,-3.01045 -5.78341,-4.51607 -2.49584,0.86228 -4.99185,1.72426 -7.48816,2.58599 2.49708,0.48451 4.99379,0.96874 7.4903,1.45271 1.07482,1.22358 2.14934,2.44685 3.22361,3.66988 0.73816,1.71127 1.47603,3.4222 2.21364,5.1329 -0.031,1.79644 -0.0623,3.59254 -0.0939,5.3884 -0.14001,0.75541 -0.28029,1.51053 -0.42084,2.2654 -0.79165,-1.50196 -1.58353,-3.00413 -2.37569,-4.50659 -2.36935,-1.01636 -4.73888,-2.03294 -7.10872,-3.04981 1.66947,2.45353 3.33861,4.90671 5.00752,7.35966 0.0966,1.27931 0.19284,2.5583 0.28887,3.83706 -0.13575,0.64465 -0.27175,1.28902 -0.40803,1.93313 -1.27407,-1.29865 -2.54836,-2.5975 -3.82293,-3.89665 -0.34565,2.40264 -0.69155,4.80493 -1.03771,7.20699 -1.3267,-1.3188 -2.65361,-2.63782 -3.98081,-3.95712 -1.59784,-1.019 -3.19588,-2.03821 -4.79422,-3.05771 -1.30743,-0.1298 -2.61507,-0.25985 -3.923,-0.39017 -0.0186,0.32003 -0.0375,0.63979 -0.0567,0.95928 -0.27151,1.27043 -0.54326,2.54054 -0.81529,3.81041 0.21837,0.1705 0.43646,0.34072 0.6543,0.51068 -0.17623,2.21031 -0.35271,4.42027 -0.52946,6.63001 0.34431,2.6e-4 0.68834,2.6e-4 1.03211,0 -0.27415,2.18051 -0.54855,4.36068 -0.82322,6.54062 0.19802,0.0432 0.39577,0.0862 0.59325,0.12889 -0.32639,1.84662 -0.65304,3.69289 -0.97996,5.53894 0.34226,0.22119 0.68425,0.44212 1.02597,0.66278 -0.30274,2.10572 -0.60573,4.2111 -0.90899,6.31625 0.38407,-0.10504 0.76787,-0.21034 1.15141,-0.31591 0.1846,2.50441 0.36894,5.00846 0.55301,7.51229 0.66029,0.34878 1.32029,0.69728 1.98004,1.04552 -0.31203,0.14036 -0.6243,0.28044 -0.93685,0.42026 -2.96709,-0.0414 -5.93433,-0.0831 -8.90189,-0.12497 -0.4106,-0.081 -0.82145,-0.16234 -1.23258,-0.24391 z"
           inkscape:path-effect="#path-effect1860" />
        <g
           id="g1826"
           transform="matrix(1.4089357,0,0,1.4089357,-106.4997,-49.641723)"
           style="fill:#c6afe9;fill-opacity:0.84598494">
          <path
             id="path1822"
             style="fill:#c6afe9;stroke-width:13.0251;stroke-linecap:round;stroke-linejoin:round;fill-opacity:0.84598494"
             d="m 251.81721,161.04043 c 0,0.6014 -0.48753,1.26341 -1.08893,1.26341 -0.6014,0 -1.08893,-0.66201 -1.08893,-1.26341 0,-0.56752 0.24075,-1.03365 0.79505,-1.08435 0.0331,-0.003 0.25956,0.0808 0.29339,0.0808 0.0292,0 0.33387,-0.0838 0.36254,-0.0823 0.56082,0.0442 0.72688,0.51333 0.72688,1.08552 z"
             sodipodi:nodetypes="ssssssss" />
          <path
             style="fill:#c6afe9;stroke:none;stroke-width:0.1;stroke-linecap:butt;stroke-linejoin:miter;stroke-miterlimit:4;stroke-dasharray:none;stroke-opacity:1;fill-opacity:0.84598494"
             d="m 250.25978,159.69907 c 0.0635,0.0316 0.19014,0.0948 0.28241,0.15609 0.0923,0.0613 0.15017,0.12074 0.21683,0.12237 0.0667,0.002 0.14236,-0.0543 0.24497,-0.1039 0.1026,-0.0496 0.23204,-0.093 0.36482,-0.13848 0.13279,-0.0455 0.2689,-0.093 0.40956,-0.14465 0.14065,-0.0517 0.28585,-0.10743 0.38436,-0.14516 0.0985,-0.0377 0.15037,-0.0574 0.17909,-0.0627 0.0287,-0.005 0.0342,0.004 0.009,0.0235 -0.0251,0.0199 -0.0808,0.0513 -0.18412,0.0947 -0.10328,0.0435 -0.25422,0.099 -0.37604,0.14032 -0.12183,0.0413 -0.21452,0.0683 -0.28676,0.095 -0.0722,0.0267 -0.1239,0.053 -0.19879,0.079 -0.0749,0.026 -0.17295,0.0517 -0.25117,0.0868 -0.0782,0.0351 -0.13638,0.0796 -0.12708,0.0899 0.009,0.0103 0.086,-0.0136 0.1398,-0.0219 0.0538,-0.008 0.0844,-9.9e-4 0.10786,0.0103 0.0235,0.0113 0.0398,0.0264 0.0219,0.0408 -0.0179,0.0144 -0.07,0.0284 -0.1168,0.0528 -0.0468,0.0245 -0.0881,0.0594 -0.11884,0.0958 -0.0308,0.0365 -0.0511,0.0744 -0.0813,0.0733 -0.0302,-0.001 -0.0708,-0.0415 -0.11172,-0.0688 -0.041,-0.0274 -0.0824,-0.0415 -0.13055,-0.0578 -0.0482,-0.0163 -0.10323,-0.0348 -0.13791,-0.0618 -0.0347,-0.027 -0.0488,-0.0627 -0.0377,-0.0759 0.0112,-0.0132 0.0475,-0.004 0.0969,0.012 0.0494,0.0156 0.11198,0.037 0.12251,0.0313 0.0105,-0.006 -0.0309,-0.0387 -0.0836,-0.0731 -0.0526,-0.0344 -0.11662,-0.0704 -0.18365,-0.10913 -0.067,-0.0387 -0.13717,-0.0803 -0.17404,-0.10943 -0.0369,-0.0291 -0.0402,-0.046 -0.042,-0.0546 -0.002,-0.009 -0.002,-0.009 0.0618,0.023 z"
             id="path1824"
             inkscape:original-d="m 250.19629,159.66743 c 0.12692,0.0634 0.25358,0.1265 0.37997,0.18935 0.0582,0.0597 0.1161,0.11912 0.17375,0.17828 0.0759,-0.0556 0.15159,-0.1115 0.227,-0.16765 0.12969,-0.0431 0.25912,-0.0865 0.38829,-0.13012 0.1364,-0.0473 0.27253,-0.0948 0.40839,-0.14262 0.14546,-0.0555 0.29065,-0.11128 0.43558,-0.16732 0.0521,-0.0194 0.10396,-0.0391 0.15554,-0.0591 0.006,0.009 0.0113,0.018 0.0166,0.0266 -0.0554,0.0316 -0.11114,0.0629 -0.1671,0.094 -0.15066,0.0558 -0.30159,0.11139 -0.45277,0.16669 -0.0925,0.0273 -0.1852,0.0543 -0.27819,0.0811 -0.0514,0.0266 -0.10308,0.0529 -0.15502,0.079 -0.0979,0.026 -0.19598,0.0516 -0.29437,0.0771 -0.0579,0.0448 -0.11606,0.0893 -0.17449,0.13356 0.0769,-0.0237 0.15363,-0.0475 0.23004,-0.0717 0.0309,0.008 0.0616,0.0148 0.092,0.0218 0.0166,0.0154 0.0329,0.0305 0.049,0.0454 -0.0518,0.0142 -0.10394,0.0282 -0.15631,0.0419 -0.041,0.0352 -0.0823,0.0701 -0.12377,0.10472 -0.02,0.0382 -0.0403,0.0761 -0.0609,0.11383 -0.0402,-0.0401 -0.0807,-0.0805 -0.1215,-0.1211 -0.0412,-0.0139 -0.0826,-0.0281 -0.12427,-0.0425 -0.0547,-0.0182 -0.10974,-0.0367 -0.16501,-0.0554 -0.0139,-0.0355 -0.028,-0.0712 -0.0425,-0.10716 0.0366,0.01 0.0729,0.0196 0.109,0.0289 0.0628,0.0217 0.12534,0.0432 0.18761,0.0644 -0.0412,-0.0327 -0.0826,-0.0657 -0.12435,-0.0989 -0.0636,-0.0356 -0.12755,-0.0716 -0.19172,-0.10773 -0.0699,-0.0413 -0.14003,-0.0829 -0.21045,-0.12468 -0.003,-0.0166 -0.006,-0.0335 -0.0101,-0.0507 z"
             inkscape:path-effect="#path-effect1864" />
        </g>
        <g
           id="g1832"
           transform="matrix(1.4161934,0,0,1.4161934,-101.06181,-79.044682)"
           style="fill:#c6afe9;fill-opacity:0.84598494">
          <path
             id="path1828"
             style="fill:#c6afe9;stroke-width:13.0251;stroke-linecap:round;stroke-linejoin:round;fill-opacity:0.84598494"
             d="m 251.81721,161.04043 c 0,0.6014 -0.48753,1.26341 -1.08893,1.26341 -0.6014,0 -1.08893,-0.66201 -1.08893,-1.26341 0,-0.56752 0.24075,-1.03365 0.79505,-1.08435 0.0331,-0.003 0.25956,0.0808 0.29339,0.0808 0.0292,0 0.33387,-0.0838 0.36254,-0.0823 0.56082,0.0442 0.72688,0.51333 0.72688,1.08552 z"
             sodipodi:nodetypes="ssssssss" />
          <path
             style="fill:#c6afe9;stroke:none;stroke-width:0.1;stroke-linecap:butt;stroke-linejoin:miter;stroke-miterlimit:4;stroke-dasharray:none;stroke-opacity:1;fill-opacity:0.84598494"
             d="m 250.25978,159.69907 c 0.0635,0.0316 0.19014,0.0948 0.28241,0.15609 0.0923,0.0613 0.15017,0.12074 0.21683,0.12237 0.0667,0.002 0.14236,-0.0543 0.24497,-0.1039 0.1026,-0.0496 0.23204,-0.093 0.36482,-0.13848 0.13279,-0.0455 0.2689,-0.093 0.40956,-0.14465 0.14065,-0.0517 0.28585,-0.10743 0.38436,-0.14516 0.0985,-0.0377 0.15037,-0.0574 0.17909,-0.0627 0.0287,-0.005 0.0342,0.004 0.009,0.0235 -0.0251,0.0199 -0.0808,0.0513 -0.18412,0.0947 -0.10328,0.0435 -0.25422,0.099 -0.37604,0.14032 -0.12183,0.0413 -0.21452,0.0683 -0.28676,0.095 -0.0722,0.0267 -0.1239,0.053 -0.19879,0.079 -0.0749,0.026 -0.17295,0.0517 -0.25117,0.0868 -0.0782,0.0351 -0.13638,0.0796 -0.12708,0.0899 0.009,0.0103 0.086,-0.0136 0.1398,-0.0219 0.0538,-0.008 0.0844,-9.9e-4 0.10786,0.0103 0.0235,0.0113 0.0398,0.0264 0.0219,0.0408 -0.0179,0.0144 -0.07,0.0284 -0.1168,0.0528 -0.0468,0.0245 -0.0881,0.0594 -0.11884,0.0958 -0.0308,0.0365 -0.0511,0.0744 -0.0813,0.0733 -0.0302,-0.001 -0.0708,-0.0415 -0.11172,-0.0688 -0.041,-0.0274 -0.0824,-0.0415 -0.13055,-0.0578 -0.0482,-0.0163 -0.10323,-0.0348 -0.13791,-0.0618 -0.0347,-0.027 -0.0488,-0.0627 -0.0377,-0.0759 0.0112,-0.0132 0.0475,-0.004 0.0969,0.012 0.0494,0.0156 0.11198,0.037 0.12251,0.0313 0.0105,-0.006 -0.0309,-0.0387 -0.0836,-0.0731 -0.0526,-0.0344 -0.11662,-0.0704 -0.18365,-0.10913 -0.067,-0.0387 -0.13717,-0.0803 -0.17404,-0.10943 -0.0369,-0.0291 -0.0402,-0.046 -0.042,-0.0546 -0.002,-0.009 -0.002,-0.009 0.0618,0.023 z"
             id="path1830"
             inkscape:original-d="m 250.19629,159.66743 c 0.12692,0.0634 0.25358,0.1265 0.37997,0.18935 0.0582,0.0597 0.1161,0.11912 0.17375,0.17828 0.0759,-0.0556 0.15159,-0.1115 0.227,-0.16765 0.12969,-0.0431 0.25912,-0.0865 0.38829,-0.13012 0.1364,-0.0473 0.27253,-0.0948 0.40839,-0.14262 0.14546,-0.0555 0.29065,-0.11128 0.43558,-0.16732 0.0521,-0.0194 0.10396,-0.0391 0.15554,-0.0591 0.006,0.009 0.0113,0.018 0.0166,0.0266 -0.0554,0.0316 -0.11114,0.0629 -0.1671,0.094 -0.15066,0.0558 -0.30159,0.11139 -0.45277,0.16669 -0.0925,0.0273 -0.1852,0.0543 -0.27819,0.0811 -0.0514,0.0266 -0.10308,0.0529 -0.15502,0.079 -0.0979,0.026 -0.19598,0.0516 -0.29437,0.0771 -0.0579,0.0448 -0.11606,0.0893 -0.17449,0.13356 0.0769,-0.0237 0.15363,-0.0475 0.23004,-0.0717 0.0309,0.008 0.0616,0.0148 0.092,0.0218 0.0166,0.0154 0.0329,0.0305 0.049,0.0454 -0.0518,0.0142 -0.10394,0.0282 -0.15631,0.0419 -0.041,0.0352 -0.0823,0.0701 -0.12377,0.10472 -0.02,0.0382 -0.0403,0.0761 -0.0609,0.11383 -0.0402,-0.0401 -0.0807,-0.0805 -0.1215,-0.1211 -0.0412,-0.0139 -0.0826,-0.0281 -0.12427,-0.0425 -0.0547,-0.0182 -0.10974,-0.0367 -0.16501,-0.0554 -0.0139,-0.0355 -0.028,-0.0712 -0.0425,-0.10716 0.0366,0.01 0.0729,0.0196 0.109,0.0289 0.0628,0.0217 0.12534,0.0432 0.18761,0.0644 -0.0412,-0.0327 -0.0826,-0.0657 -0.12435,-0.0989 -0.0636,-0.0356 -0.12755,-0.0716 -0.19172,-0.10773 -0.0699,-0.0413 -0.14003,-0.0829 -0.21045,-0.12468 -0.003,-0.0166 -0.006,-0.0335 -0.0101,-0.0507 z"
             inkscape:path-effect="#path-effect1868" />
        </g>
        <g
           id="g1838"
           transform="matrix(1.4161934,0,0,1.4161934,-99.956183,-75.733499)"
           style="fill:#c6afe9;fill-opacity:0.84598494">
          <path
             id="path1834"
             style="fill:#c6afe9;stroke-width:13.0251;stroke-linecap:round;stroke-linejoin:round;fill-opacity:0.84598494"
             d="m 251.81721,161.04043 c 0,0.6014 -0.48753,1.26341 -1.08893,1.26341 -0.6014,0 -1.08893,-0.66201 -1.08893,-1.26341 0,-0.56752 0.24075,-1.03365 0.79505,-1.08435 0.0331,-0.003 0.25956,0.0808 0.29339,0.0808 0.0292,0 0.33387,-0.0838 0.36254,-0.0823 0.56082,0.0442 0.72688,0.51333 0.72688,1.08552 z"
             sodipodi:nodetypes="ssssssss" />
          <path
             style="fill:#c6afe9;stroke:none;stroke-width:0.1;stroke-linecap:butt;stroke-linejoin:miter;stroke-miterlimit:4;stroke-dasharray:none;stroke-opacity:1;fill-opacity:0.84598494"
             d="m 250.25978,159.69907 c 0.0635,0.0316 0.19014,0.0948 0.28241,0.15609 0.0923,0.0613 0.15017,0.12074 0.21683,0.12237 0.0667,0.002 0.14236,-0.0543 0.24497,-0.1039 0.1026,-0.0496 0.23204,-0.093 0.36482,-0.13848 0.13279,-0.0455 0.2689,-0.093 0.40956,-0.14465 0.14065,-0.0517 0.28585,-0.10743 0.38436,-0.14516 0.0985,-0.0377 0.15037,-0.0574 0.17909,-0.0627 0.0287,-0.005 0.0342,0.004 0.009,0.0235 -0.0251,0.0199 -0.0808,0.0513 -0.18412,0.0947 -0.10328,0.0435 -0.25422,0.099 -0.37604,0.14032 -0.12183,0.0413 -0.21452,0.0683 -0.28676,0.095 -0.0722,0.0267 -0.1239,0.053 -0.19879,0.079 -0.0749,0.026 -0.17295,0.0517 -0.25117,0.0868 -0.0782,0.0351 -0.13638,0.0796 -0.12708,0.0899 0.009,0.0103 0.086,-0.0136 0.1398,-0.0219 0.0538,-0.008 0.0844,-9.9e-4 0.10786,0.0103 0.0235,0.0113 0.0398,0.0264 0.0219,0.0408 -0.0179,0.0144 -0.07,0.0284 -0.1168,0.0528 -0.0468,0.0245 -0.0881,0.0594 -0.11884,0.0958 -0.0308,0.0365 -0.0511,0.0744 -0.0813,0.0733 -0.0302,-0.001 -0.0708,-0.0415 -0.11172,-0.0688 -0.041,-0.0274 -0.0824,-0.0415 -0.13055,-0.0578 -0.0482,-0.0163 -0.10323,-0.0348 -0.13791,-0.0618 -0.0347,-0.027 -0.0488,-0.0627 -0.0377,-0.0759 0.0112,-0.0132 0.0475,-0.004 0.0969,0.012 0.0494,0.0156 0.11198,0.037 0.12251,0.0313 0.0105,-0.006 -0.0309,-0.0387 -0.0836,-0.0731 -0.0526,-0.0344 -0.11662,-0.0704 -0.18365,-0.10913 -0.067,-0.0387 -0.13717,-0.0803 -0.17404,-0.10943 -0.0369,-0.0291 -0.0402,-0.046 -0.042,-0.0546 -0.002,-0.009 -0.002,-0.009 0.0618,0.023 z"
             id="path1836"
             inkscape:original-d="m 250.19629,159.66743 c 0.12692,0.0634 0.25358,0.1265 0.37997,0.18935 0.0582,0.0597 0.1161,0.11912 0.17375,0.17828 0.0759,-0.0556 0.15159,-0.1115 0.227,-0.16765 0.12969,-0.0431 0.25912,-0.0865 0.38829,-0.13012 0.1364,-0.0473 0.27253,-0.0948 0.40839,-0.14262 0.14546,-0.0555 0.29065,-0.11128 0.43558,-0.16732 0.0521,-0.0194 0.10396,-0.0391 0.15554,-0.0591 0.006,0.009 0.0113,0.018 0.0166,0.0266 -0.0554,0.0316 -0.11114,0.0629 -0.1671,0.094 -0.15066,0.0558 -0.30159,0.11139 -0.45277,0.16669 -0.0925,0.0273 -0.1852,0.0543 -0.27819,0.0811 -0.0514,0.0266 -0.10308,0.0529 -0.15502,0.079 -0.0979,0.026 -0.19598,0.0516 -0.29437,0.0771 -0.0579,0.0448 -0.11606,0.0893 -0.17449,0.13356 0.0769,-0.0237 0.15363,-0.0475 0.23004,-0.0717 0.0309,0.008 0.0616,0.0148 0.092,0.0218 0.0166,0.0154 0.0329,0.0305 0.049,0.0454 -0.0518,0.0142 -0.10394,0.0282 -0.15631,0.0419 -0.041,0.0352 -0.0823,0.0701 -0.12377,0.10472 -0.02,0.0382 -0.0403,0.0761 -0.0609,0.11383 -0.0402,-0.0401 -0.0807,-0.0805 -0.1215,-0.1211 -0.0412,-0.0139 -0.0826,-0.0281 -0.12427,-0.0425 -0.0547,-0.0182 -0.10974,-0.0367 -0.16501,-0.0554 -0.0139,-0.0355 -0.028,-0.0712 -0.0425,-0.10716 0.0366,0.01 0.0729,0.0196 0.109,0.0289 0.0628,0.0217 0.12534,0.0432 0.18761,0.0644 -0.0412,-0.0327 -0.0826,-0.0657 -0.12435,-0.0989 -0.0636,-0.0356 -0.12755,-0.0716 -0.19172,-0.10773 -0.0699,-0.0413 -0.14003,-0.0829 -0.21045,-0.12468 -0.003,-0.0166 -0.006,-0.0335 -0.0101,-0.0507 z"
             inkscape:path-effect="#path-effect1872" />
        </g>
        <g
           id="g1844"
           transform="matrix(1.2264594,0.70809669,-0.70809669,1.2264594,59.691588,-223.91208)"
           style="fill:#c6afe9;fill-opacity:0.84598494">
          <path
             id="path1840"
             style="fill:#c6afe9;stroke-width:13.0251;stroke-linecap:round;stroke-linejoin:round;fill-opacity:0.84598494"
             d="m 251.81721,161.04043 c 0,0.6014 -0.48753,1.26341 -1.08893,1.26341 -0.6014,0 -1.08893,-0.66201 -1.08893,-1.26341 0,-0.56752 0.24075,-1.03365 0.79505,-1.08435 0.0331,-0.003 0.25956,0.0808 0.29339,0.0808 0.0292,0 0.33387,-0.0838 0.36254,-0.0823 0.56082,0.0442 0.72688,0.51333 0.72688,1.08552 z"
             sodipodi:nodetypes="ssssssss" />
          <path
             style="fill:#c6afe9;stroke:none;stroke-width:0.1;stroke-linecap:butt;stroke-linejoin:miter;stroke-miterlimit:4;stroke-dasharray:none;stroke-opacity:1;fill-opacity:0.84598494"
             d="m 250.25978,159.69907 c 0.0635,0.0316 0.19014,0.0948 0.28241,0.15609 0.0923,0.0613 0.15017,0.12074 0.21683,0.12237 0.0667,0.002 0.14236,-0.0543 0.24497,-0.1039 0.1026,-0.0496 0.23204,-0.093 0.36482,-0.13848 0.13279,-0.0455 0.2689,-0.093 0.40956,-0.14465 0.14065,-0.0517 0.28585,-0.10743 0.38436,-0.14516 0.0985,-0.0377 0.15037,-0.0574 0.17909,-0.0627 0.0287,-0.005 0.0342,0.004 0.009,0.0235 -0.0251,0.0199 -0.0808,0.0513 -0.18412,0.0947 -0.10328,0.0435 -0.25422,0.099 -0.37604,0.14032 -0.12183,0.0413 -0.21452,0.0683 -0.28676,0.095 -0.0722,0.0267 -0.1239,0.053 -0.19879,0.079 -0.0749,0.026 -0.17295,0.0517 -0.25117,0.0868 -0.0782,0.0351 -0.13638,0.0796 -0.12708,0.0899 0.009,0.0103 0.086,-0.0136 0.1398,-0.0219 0.0538,-0.008 0.0844,-9.9e-4 0.10786,0.0103 0.0235,0.0113 0.0398,0.0264 0.0219,0.0408 -0.0179,0.0144 -0.07,0.0284 -0.1168,0.0528 -0.0468,0.0245 -0.0881,0.0594 -0.11884,0.0958 -0.0308,0.0365 -0.0511,0.0744 -0.0813,0.0733 -0.0302,-0.001 -0.0708,-0.0415 -0.11172,-0.0688 -0.041,-0.0274 -0.0824,-0.0415 -0.13055,-0.0578 -0.0482,-0.0163 -0.10323,-0.0348 -0.13791,-0.0618 -0.0347,-0.027 -0.0488,-0.0627 -0.0377,-0.0759 0.0112,-0.0132 0.0475,-0.004 0.0969,0.012 0.0494,0.0156 0.11198,0.037 0.12251,0.0313 0.0105,-0.006 -0.0309,-0.0387 -0.0836,-0.0731 -0.0526,-0.0344 -0.11662,-0.0704 -0.18365,-0.10913 -0.067,-0.0387 -0.13717,-0.0803 -0.17404,-0.10943 -0.0369,-0.0291 -0.0402,-0.046 -0.042,-0.0546 -0.002,-0.009 -0.002,-0.009 0.0618,0.023 z"
             id="path1842"
             inkscape:original-d="m 250.19629,159.66743 c 0.12692,0.0634 0.25358,0.1265 0.37997,0.18935 0.0582,0.0597 0.1161,0.11912 0.17375,0.17828 0.0759,-0.0556 0.15159,-0.1115 0.227,-0.16765 0.12969,-0.0431 0.25912,-0.0865 0.38829,-0.13012 0.1364,-0.0473 0.27253,-0.0948 0.40839,-0.14262 0.14546,-0.0555 0.29065,-0.11128 0.43558,-0.16732 0.0521,-0.0194 0.10396,-0.0391 0.15554,-0.0591 0.006,0.009 0.0113,0.018 0.0166,0.0266 -0.0554,0.0316 -0.11114,0.0629 -0.1671,0.094 -0.15066,0.0558 -0.30159,0.11139 -0.45277,0.16669 -0.0925,0.0273 -0.1852,0.0543 -0.27819,0.0811 -0.0514,0.0266 -0.10308,0.0529 -0.15502,0.079 -0.0979,0.026 -0.19598,0.0516 -0.29437,0.0771 -0.0579,0.0448 -0.11606,0.0893 -0.17449,0.13356 0.0769,-0.0237 0.15363,-0.0475 0.23004,-0.0717 0.0309,0.008 0.0616,0.0148 0.092,0.0218 0.0166,0.0154 0.0329,0.0305 0.049,0.0454 -0.0518,0.0142 -0.10394,0.0282 -0.15631,0.0419 -0.041,0.0352 -0.0823,0.0701 -0.12377,0.10472 -0.02,0.0382 -0.0403,0.0761 -0.0609,0.11383 -0.0402,-0.0401 -0.0807,-0.0805 -0.1215,-0.1211 -0.0412,-0.0139 -0.0826,-0.0281 -0.12427,-0.0425 -0.0547,-0.0182 -0.10974,-0.0367 -0.16501,-0.0554 -0.0139,-0.0355 -0.028,-0.0712 -0.0425,-0.10716 0.0366,0.01 0.0729,0.0196 0.109,0.0289 0.0628,0.0217 0.12534,0.0432 0.18761,0.0644 -0.0412,-0.0327 -0.0826,-0.0657 -0.12435,-0.0989 -0.0636,-0.0356 -0.12755,-0.0716 -0.19172,-0.10773 -0.0699,-0.0413 -0.14003,-0.0829 -0.21045,-0.12468 -0.003,-0.0166 -0.006,-0.0335 -0.0101,-0.0507 z"
             inkscape:path-effect="#path-effect1876" />
        </g>
        <path
           style="color:#000000;fill:#c6afe9;stroke-linecap:round;stroke-dasharray:3.175, 3.175;stroke-dashoffset:0.0529166;-inkscape-stroke:none;fill-opacity:0.84598494"
           d="m 253.90039,152.06445 a 0.1322915,0.1322915 0 0 0 -0.18359,0.0312 l -0.19727,0.27735 -0.19531,0.27929 -0.19336,0.28125 -0.19141,0.28125 -0.1875,0.28516 -0.1875,0.28516 -0.18359,0.28711 -0.17969,0.2871 -0.17969,0.29102 -0.0332,0.0547 a 0.1322915,0.1322915 0 0 0 0.043,0.18164 0.1322915,0.1322915 0 0 0 0.18164,-0.043 l 0.0332,-0.0547 0.17969,-0.28906 0.17969,-0.28711 0.18164,-0.28516 0.18555,-0.2832 0.1875,-0.2832 0.18945,-0.2793 0.19141,-0.2793 0.19335,-0.27734 0.19727,-0.27734 a 0.1322915,0.1322915 0 0 0 -0.0312,-0.1836 z m -3.38867,5.35547 a 0.1322915,0.1322915 0 0 0 -0.0762,0.0645 l -0.0723,0.14258 -0.15234,0.30469 -0.15039,0.30664 -0.14844,0.30664 -0.14453,0.3086 -0.14258,0.30859 -0.14063,0.31055 -0.13671,0.3125 -0.13477,0.3125 -0.11719,0.27734 a 0.1322915,0.1322915 0 0 0 0.0723,0.17187 0.1322915,0.1322915 0 0 0 0.17187,-0.0703 l 0.11719,-0.27344 0.13281,-0.3125 0.13672,-0.30859 0.13867,-0.31055 0.14258,-0.30664 0.14453,-0.30664 0.14649,-0.30468 0.14844,-0.30469 0.15234,-0.30274 0.0703,-0.14062 a 0.1322915,0.1322915 0 0 0 -0.0566,-0.17774 0.1322915,0.1322915 0 0 0 -0.10156,-0.008 z m -2.36328,5.85352 a 0.1322915,0.1322915 0 0 0 -0.16602,0.0859 l -0.125,0.38086 -0.13086,0.41602 -0.12695,0.41797 -0.12109,0.41992 -0.11719,0.41992 -0.11328,0.42188 -0.10938,0.42383 -0.0391,0.1582 a 0.1322915,0.1322915 0 0 0 0.0957,0.16015 0.1322915,0.1322915 0 0 0 0.16016,-0.0977 l 0.0391,-0.15625 0.10938,-0.41992 0.11132,-0.41993 0.11719,-0.41796 0.1211,-0.41602 0.12695,-0.41602 0.1289,-0.41406 0.125,-0.38086 a 0.1322915,0.1322915 0 0 0 -0.0859,-0.16601 z m -1.54492,6.15234 a 0.1322915,0.1322915 0 0 0 -0.1543,0.10938 l -0.0234,0.14257 -0.0703,0.42969 -0.0644,0.4336 -0.0586,0.43164 -0.0566,0.43359 -0.0508,0.43359 -0.0469,0.4336 -0.041,0.41797 a 0.1322915,0.1322915 0 0 0 0.11914,0.14453 0.1322915,0.1322915 0 0 0 0.14453,-0.11914 l 0.041,-0.41602 0.0469,-0.43164 0.0508,-0.43164 0.0547,-0.42969 0.0606,-0.42969 0.0625,-0.42968 0.0703,-0.42774 0.0234,-0.14258 a 0.1322915,0.1322915 0 0 0 -0.10742,-0.15234 z"
           id="path1846" />
        <path
           style="color:#000000;fill:#c6afe9;stroke-linecap:round;stroke-dasharray:2.61576, 2.61576;stroke-dashoffset:0.0435959;fill-opacity:0.84598494"
           d="m 254.50586,155.66016 a 0.10899,0.10899 0 0 0 -0.0625,0.0547 l -0.30859,0.60157 -0.30079,0.60546 -0.29101,0.60938 -0.22852,0.49805 a 0.10899,0.10899 0 0 0 0.0527,0.14453 0.10899,0.10899 0 0 0 0.14453,-0.0527 l 0.22851,-0.49609 0.29102,-0.60742 0.29883,-0.60352 0.30664,-0.59961 a 0.10899,0.10899 0 0 0 -0.0469,-0.14648 0.10899,0.10899 0 0 0 -0.084,-0.008 z m -2.07422,4.72265 a 0.10899,0.10899 0 0 0 -0.14062,0.0606 l -0.0781,0.19726 -0.24023,0.63086 -0.23243,0.63672 -0.22265,0.63867 -0.1211,0.36133 a 0.10899,0.10899 0 0 0 0.0703,0.13867 0.10899,0.10899 0 0 0 0.13672,-0.0703 l 0.12109,-0.35937 0.2207,-0.63672 0.23047,-0.63281 0.24024,-0.62891 0.0781,-0.19531 a 0.10899,0.10899 0 0 0 -0.0625,-0.14063 z m -1.66211,4.95703 a 0.10899,0.10899 0 0 0 -0.13281,0.0762 l -0.0996,0.36523 -0.17188,0.66602 -0.16406,0.66796 -0.15234,0.66993 -0.0391,0.17773 a 0.10899,0.10899 0 0 0 0.084,0.12891 0.10899,0.10899 0 0 0 0.12891,-0.084 l 0.0391,-0.17578 0.15234,-0.66797 0.16211,-0.66406 0.17188,-0.66211 0.0976,-0.36328 a 0.10899,0.10899 0 0 0 -0.0762,-0.13477 z m -1.125,5.10743 a 0.10899,0.10899 0 0 0 -0.12305,0.0898 l -0.0996,0.62695 -0.0957,0.67969 -0.0879,0.68164 -0.0684,0.60938 a 0.10899,0.10899 0 0 0 0.0957,0.11914 0.10899,0.10899 0 0 0 0.1211,-0.0957 l 0.0684,-0.60547 0.0879,-0.67968 0.0957,-0.67774 0.0977,-0.62304 a 0.10899,0.10899 0 0 0 -0.0918,-0.125 z m -0.57226,5.19726 a 0.10899,0.10899 0 0 0 -0.11524,0.10352 l -0.0117,0.20117 -0.0293,0.68555 a 0.10899,0.10899 0 0 0 0.10351,0.11523 0.10899,0.10899 0 0 0 0.11524,-0.10547 l 0.0293,-0.68359 0.0117,-0.20117 a 0.10899,0.10899 0 0 0 -0.10351,-0.11524 z"
           id="path1848" />
        <path
           id="path1850"
           style="fill:#c6afe9;stroke:none;stroke-width:0.207288px;stroke-linecap:butt;stroke-linejoin:round;stroke-opacity:1;fill-opacity:0.84598494"
           d="m 243.88545,178.35277 c -0.30018,-0.002 -0.60054,0.0415 -0.88665,0.13232 -0.5388,0.17127 -1.0242,0.50731 -1.37409,0.95142 -0.3499,0.44411 -0.56281,0.99437 -0.60325,1.55831 -0.52111,0.10257 -1.00413,0.38971 -1.34333,0.79838 -0.3392,0.40868 -0.53255,0.93613 -0.53725,1.46722 -0.005,0.47618 0.14166,0.9526 0.41215,1.34453 0.27044,0.39195 0.66425,0.69738 1.11094,0.86237 l 8.8033,-0.0332 c 0.51596,-0.15482 0.97119,-0.50298 1.25588,-0.96033 0.28469,-0.45734 0.39616,-1.01969 0.30729,-1.55102 -0.0868,-0.51924 -0.36382,-1.00459 -0.76681,-1.34332 -0.403,-0.33873 -0.92862,-0.52821 -1.45507,-0.52429 -0.0777,-0.52505 -0.38428,-1.01215 -0.82429,-1.30892 -0.51914,-0.35014 -1.21485,-0.42241 -1.79477,-0.18624 -0.34551,-0.49106 -0.8504,-0.86783 -1.41943,-1.05952 -0.28451,-0.0959 -0.58445,-0.14516 -0.88462,-0.14778 z m -0.82025,2.60527 a 0.22132565,0.22132565 0 0 1 0.15668,0.0652 l 0.42065,0.42026 0.42106,-0.42026 a 0.22132565,0.22132565 0 0 1 0.31377,0 0.22132565,0.22132565 0 0 1 0,0.31216 l -0.42106,0.42106 0.42106,0.42065 a 0.22132565,0.22132565 0 0 1 0,0.31376 0.22132565,0.22132565 0 0 1 -0.31377,0 l -0.42106,-0.42065 -0.42065,0.42065 a 0.22132565,0.22132565 0 0 1 -0.31376,0 0.22132565,0.22132565 0 0 1 0,-0.31376 l 0.42105,-0.42065 -0.42105,-0.42106 a 0.22132565,0.22132565 0 0 1 0,-0.31216 0.22132565,0.22132565 0 0 1 0.15708,-0.0652 z m 2.84011,0 a 0.22132565,0.22132565 0 0 1 0.15667,0.0652 l 0.42065,0.42066 0.42107,-0.42066 a 0.22132565,0.22132565 0 0 1 0.31213,0 0.22132565,0.22132565 0 0 1 0,0.31216 l -0.42065,0.42106 0.42065,0.42065 a 0.22132565,0.22132565 0 0 1 0,0.31376 0.22132565,0.22132565 0 0 1 -0.31213,0 l -0.42107,-0.42105 -0.42065,0.42105 a 0.22132565,0.22132565 0 0 1 -0.31377,0 0.22132565,0.22132565 0 0 1 0,-0.31376 l 0.42105,-0.42065 -0.42105,-0.42106 a 0.22132565,0.22132565 0 0 1 0,-0.31216 0.22132565,0.22132565 0 0 1 0.1571,-0.0652 z m -0.81336,2.17695 c 0.71968,0.0278 1.41722,0.35021 1.90365,0.88138 a 0.18215298,0.18215298 0 0 1 -0.0102,0.25869 0.18215298,0.18215298 0 0 1 -0.25709,-0.0117 c -0.41838,-0.45689 -1.03036,-0.73975 -1.6494,-0.76357 -0.67878,-0.0261 -1.37122,0.26259 -1.82998,0.76357 a 0.18215298,0.18215298 0 0 1 -0.25707,0.0117 0.18215298,0.18215298 0 0 1 -0.0117,-0.25869 c 0.53407,-0.58321 1.32154,-0.91179 2.11176,-0.88138 z" />
        <path
           id="path1854"
           style="color:#000000;fill:#c6afe9;fill-opacity:0.84598494;stroke-linecap:round;opacity:0"
           d="m 242.89258,188.5332 c -1.00864,-0.0388 -2.01363,0.38059 -2.69531,1.125 a 0.2325,0.2325 0 0 0 0.0137,0.33008 0.2325,0.2325 0 0 0 0.32812,-0.0156 c 0.58556,-0.63945 1.46954,-1.00797 2.33594,-0.97461 0.79014,0.0304 1.57146,0.39144 2.10547,0.97461 a 0.2325,0.2325 0 0 0 0.32812,0.0156 0.2325,0.2325 0 0 0 0.0137,-0.33008 c -0.62086,-0.67799 -1.51107,-1.08962 -2.42969,-1.125 z m 1.03826,-2.77865 a 0.28249999,0.28249999 0 0 0 -0.2005,0.0832 0.28249999,0.28249999 0 0 0 0,0.39843 l 0.53744,0.53743 -0.53744,0.53692 a 0.28249999,0.28249999 0 0 0 0,0.40049 0.28249999,0.28249999 0 0 0 0.40049,0 l 0.53692,-0.53744 0.53744,0.53744 a 0.28249999,0.28249999 0 0 0 0.39842,0 0.28249999,0.28249999 0 0 0 0,-0.40049 l -0.53692,-0.53692 0.53692,-0.53743 a 0.28249999,0.28249999 0 0 0 0,-0.39843 0.28249999,0.28249999 0 0 0 -0.39842,0 l -0.53744,0.53692 -0.53692,-0.53692 a 0.28249999,0.28249999 0 0 0 -0.19999,-0.0832 z m -3.6251,0 a 0.28249999,0.28249999 0 0 0 -0.2005,0.0832 0.28249999,0.28249999 0 0 0 0,0.39843 l 0.53743,0.53743 -0.53743,0.53692 a 0.28249999,0.28249999 0 0 0 0,0.40049 0.28249999,0.28249999 0 0 0 0.40049,0 l 0.53692,-0.53692 0.53743,0.53692 a 0.28249999,0.28249999 0 0 0 0.4005,0 0.28249999,0.28249999 0 0 0 0,-0.40049 l -0.53744,-0.53692 0.53744,-0.53743 a 0.28249999,0.28249999 0 0 0 0,-0.39843 0.28249999,0.28249999 0 0 0 -0.4005,0 l -0.53743,0.5364 -0.53692,-0.5364 a 0.28249999,0.28249999 0 0 0 -0.19999,-0.0832 z" />
      </g>
      <g
         id="g2474"
         transform="translate(-152.85594,1.1501368)">
        <path
           style="fill:#cccccc;stroke:none;stroke-width:0.264583px;stroke-linecap:butt;stroke-linejoin:miter;stroke-opacity:1"
           d="m 252.75282,185.54296 c 0.28669,-0.2367 0.86004,-0.71006 1.25096,-2.19074 0.39092,-1.48068 0.59944,-3.96884 0.8953,-5.28884 0.29585,-1.32 0.67887,-1.47148 0.63338,-2.52949 -0.0455,-1.05802 -0.51944,-3.02284 -0.63949,-4.00543 -0.12005,-0.98259 0.1136,-0.98259 0.19447,-1.99931 0.0809,-1.01671 0.009,-3.05033 0.0195,-4.10679 0.0102,-1.05646 0.10241,-1.13546 0.0622,-2.19575 -0.0402,-1.0603 -0.21267,-3.10213 -0.17118,-4.12321 0.0415,-1.02108 0.29672,-1.02108 0.24376,-2.0176 -0.053,-0.99651 -0.4139,-2.98977 -0.38487,-3.98524 0.029,-0.99546 0.44782,-0.99279 0.54471,-1.95697 0.0969,-0.96418 -0.12789,-2.89541 -1.53888,-3.07342 -1.41099,-0.17801 -4.00812,1.39753 -5.3227,3.26047 -1.31458,1.86294 -1.34648,4.01287 -1.55008,5.14194 -0.2036,1.12906 -0.57907,1.23754 -1.41278,0.10384 -0.8337,-1.1337 -2.12558,-3.50984 -2.36833,-5.54456 -0.24276,-2.03472 0.56384,-3.7277 0.48574,-4.55476 -0.0781,-0.82706 -1.04116,-0.78805 -2.21789,-0.0513 -1.17674,0.73677 -2.56682,2.17123 -3.49917,3.25211 -0.93236,1.08089 -1.40691,1.8081 -1.62023,1.15493 -0.21333,-0.65317 -0.16546,-2.68685 0.6442,-4.8791 0.80965,-2.19226 2.38106,-4.54276 2.22269,-5.51536 -0.15838,-0.9726 -2.04674,-0.56717 -3.35804,0.12898 -1.31131,0.69615 -2.04527,1.68288 -2.51896,2.5425 -0.47369,0.85962 -0.68707,1.59194 -0.96126,1.20896 -0.27419,-0.38298 -0.6093,-1.88136 -0.70568,-3.53724 -0.0964,-1.65588 0.046,-3.46911 1.14934,-5.26576 1.10332,-1.79664 3.16739,-3.57633 5.59181,-4.68165 2.42441,-1.10532 5.20882,-1.53621 6.74745,-1.75165 1.53863,-0.21543 1.83138,-0.21543 1.16195,-0.7148 -0.66943,-0.49937 -2.30103,-1.49826 -4.04608,-1.75397 -1.74504,-0.2557 -3.60331,0.23202 -5.13427,1.01674 -1.53096,0.78473 -2.73437,1.86639 -3.38913,2.2957 -0.65476,0.42931 -0.76097,0.20593 -0.41135,-1.14904 0.34962,-1.35497 1.15524,-3.84129 2.32748,-5.82177 1.17223,-1.98047 2.71092,-3.45482 4.49924,-4.54764 1.78831,-1.09281 3.82597,-1.80398 5.7942,-2.06388 1.96822,-0.2599 3.86677,-0.0686 5.3515,0.29792 1.48473,0.36652 2.55555,0.90811 3.10007,0.99539 0.54452,0.0873 0.56305,-0.2798 0.12287,-1.33559 -0.44019,-1.05579 -1.33922,-2.80025 -2.6585,-3.93373 -1.31928,-1.13349 -3.05885,-1.65571 -3.94914,-2.23498 -0.89029,-0.57926 -0.93096,-1.21572 0.36154,-1.24718 1.2925,-0.0315 3.91777,0.54228 5.90481,1.3132 1.98703,0.77092 3.33572,1.73882 4.23297,3.04199 0.89725,1.30317 1.34322,2.94141 1.70371,3.80435 0.36049,0.86294 0.63523,0.95074 1.88235,0.63087 1.24711,-0.31987 3.46666,-1.04725 6.14658,-1.24755 2.67992,-0.2003 5.81993,0.12639 8.29263,1.5022 2.4727,1.37581 4.27803,3.80037 5.49727,5.86634 1.21924,2.06597 1.85243,3.77321 2.04072,4.5689 0.18828,0.79568 -0.0686,0.67995 -1.1609,-0.13056 -1.09235,-0.81052 -3.02011,-2.31584 -5.23214,-2.63766 -2.21202,-0.32181 -4.70803,0.54017 -4.70757,1.21335 4.6e-4,0.67318 2.49717,1.1574 4.28281,2.01129 1.78563,0.85389 2.86015,2.07716 3.76631,3.54433 0.90616,1.46716 1.64403,3.1781 1.99725,4.93164 0.35321,1.75353 0.32192,3.54963 0.23611,4.82524 -0.0858,1.27561 -0.22609,2.03073 -0.69208,1.65724 -0.466,-0.37349 -1.25788,-1.87566 -2.83856,-3.13516 -1.58068,-1.25949 -3.9502,-2.27608 -4.30045,-1.55766 -0.35024,0.71841 1.31891,3.17159 2.20154,5.03771 0.88264,1.86612 0.97893,3.14511 0.95904,4.10677 -0.0199,0.96167 -0.1559,1.60603 -0.86092,1.2788 -0.70503,-0.32723 -1.97931,-1.62609 -2.78957,-1.07437 -0.81025,0.55173 -1.15615,2.95402 -1.99243,3.49567 -0.83629,0.54165 -2.1632,-0.77737 -3.6257,-1.94655 -1.4625,-1.16918 -3.06054,-2.1884 -4.51343,-2.76313 -1.4529,-0.57473 -2.76054,-0.70478 -3.42397,-0.60982 -0.66343,0.095 -0.68233,0.41472 -0.82768,1.20966 -0.14535,0.79494 -0.41711,2.06504 -0.44377,2.78524 -0.0267,0.7202 0.19143,0.89042 0.21208,2.08056 0.0206,1.19015 -0.15583,3.40011 -0.0719,4.50499 0.0839,1.10488 0.42795,1.10488 0.46261,2.19512 0.0347,1.09023 -0.23973,3.2704 -0.27789,4.38191 -0.0382,1.1115 0.15959,1.15447 0.095,2.0992 -0.0646,0.94473 -0.39127,2.791 -0.38343,3.82461 0.008,1.03362 0.34983,1.25454 0.36915,2.41775 0.0193,1.1632 -0.28367,3.26858 -0.24316,4.2685 0.0405,0.99992 0.42431,0.89461 0.70831,2.0942 0.28399,1.19959 0.46832,3.70364 0.89065,5.12988 0.42233,1.42625 1.08233,1.77475 1.25609,2.01894 0.17377,0.24419 -0.1385,0.38427 -1.77825,0.43351 -1.63975,0.0493 -4.60699,0.008 -6.29604,-0.0539 -1.68906,-0.0615 -2.09992,-0.14276 -2.3055,-0.18344 -0.20559,-0.0407 -0.20566,-0.0403 0.081,-0.27695 z"
           id="path914"
           inkscape:original-d="m 252.46612,185.77965 c 0.57363,-0.4731 1.14698,-0.94646 1.72008,-1.42009 0.20879,-2.488 0.4173,-4.97616 0.62556,-7.46463 0.3833,-0.15123 0.76632,-0.30271 1.14909,-0.45447 -0.4737,-1.96463 -0.94764,-3.92946 -1.42186,-5.89459 0.23393,2.7e-4 0.46758,2.7e-4 0.70097,0 -0.0714,-2.03344 -0.14304,-4.06706 -0.21496,-6.10098 0.0924,-0.0787 0.18457,-0.1577 0.27645,-0.23695 -0.17224,-2.04165 -0.34473,-4.08348 -0.51749,-6.12562 0.2555,2.7e-4 0.51073,2.7e-4 0.7657,0 -0.36069,-1.99307 -0.72163,-3.98633 -1.08283,-5.97989 0.41906,0.003 0.83785,0.006 1.25638,0.008 -0.22452,-1.93105 -0.44931,-3.86228 -0.67435,-5.79381 -2.59697,1.57585 -5.19411,3.15138 -7.79155,4.72668 -0.0316,2.15028 -0.0636,4.30021 -0.0957,6.44992 -0.37521,0.10874 -0.75068,0.21721 -1.12642,0.32542 -1.29167,-2.37597 -2.58355,-4.75211 -3.87572,-7.12856 0.80689,-1.69279 1.61348,-3.38577 2.41983,-5.07905 -0.96284,0.0393 -1.92591,0.0783 -2.88925,0.11705 -1.38987,1.43477 -2.77995,2.86923 -4.17032,4.30344 -0.4743,0.7275 -0.94885,1.45471 -1.42367,2.18167 0.0481,-2.03349 0.096,-4.06717 0.14361,-6.10115 1.57174,-2.35033 3.14315,-4.70083 4.71433,-7.05165 -1.88817,0.40572 -3.77653,0.81115 -5.66519,1.21632 -0.73372,0.98704 -1.46768,1.97377 -2.20192,2.96026 -0.21313,0.73262 -0.42651,1.46494 -0.64016,2.19702 -0.33485,-1.49817 -0.66995,-2.99655 -1.00532,-4.49521 0.14269,-1.81304 0.2851,-3.62627 0.42726,-5.4398 2.06443,-1.7795 4.12851,-3.55918 6.19236,-5.33917 2.78478,-0.43064 5.56919,-0.86154 8.35338,-1.2927 0.29302,2.6e-4 0.58577,2.6e-4 0.87826,0 -1.6314,-0.99866 -3.263,-1.99755 -4.89489,-2.99673 -1.85807,0.488 -3.71634,0.97572 -5.5749,1.46318 -1.20319,1.08196 -2.4066,2.16362 -3.6103,3.24503 -0.10596,-0.22312 -0.21217,-0.4465 -0.31865,-0.67014 0.80592,-2.48615 1.61155,-4.97247 2.41693,-7.4591 1.53903,-1.47415 3.07772,-2.9485 4.61619,-4.42315 2.03801,-0.71093 4.07567,-1.4221 6.11311,-2.13355 1.89888,0.19157 3.79743,0.38287 5.69574,0.5739 1.07112,0.54187 2.14194,1.08346 3.21251,1.62479 0.0188,-0.36685 0.0373,-0.73394 0.0556,-1.1013 -0.89881,-1.74428 -1.79785,-3.48874 -2.69718,-5.23351 -1.73938,-0.52198 -3.47895,-1.04421 -5.21883,-1.5667 -0.0404,-0.63622 -0.0811,-1.27267 -0.122,-1.90941 2.62564,0.57403 5.25091,1.14777 7.87596,1.72125 1.34902,0.96821 2.69772,1.93611 4.04618,2.90377 0.44625,1.63858 0.89222,3.27682 1.33793,4.91483 0.27503,0.0881 0.54978,0.17588 0.82428,0.26343 2.21989,-0.72713 4.43943,-1.45451 6.65875,-2.18216 3.1404,0.32696 6.28041,0.65365 9.42021,0.98008 1.80567,2.42492 3.61099,4.84949 5.41609,7.27383 0.63348,1.70758 1.26668,3.41482 1.89962,5.12183 -0.25657,-0.11547 -0.5134,-0.2312 -0.7705,-0.34719 -1.92758,-1.50512 -3.85534,-3.01045 -5.78341,-4.51607 -2.49584,0.86228 -4.99185,1.72426 -7.48816,2.58599 2.49708,0.48451 4.99379,0.96874 7.4903,1.45271 1.07482,1.22358 2.14934,2.44685 3.22361,3.66988 0.73816,1.71127 1.47603,3.4222 2.21364,5.1329 -0.031,1.79644 -0.0623,3.59254 -0.0939,5.3884 -0.14001,0.75541 -0.28029,1.51053 -0.42084,2.2654 -0.79165,-1.50196 -1.58353,-3.00413 -2.37569,-4.50659 -2.36935,-1.01636 -4.73888,-2.03294 -7.10872,-3.04981 1.66947,2.45353 3.33861,4.90671 5.00752,7.35966 0.0966,1.27931 0.19284,2.5583 0.28887,3.83706 -0.13575,0.64465 -0.27175,1.28902 -0.40803,1.93313 -1.27407,-1.29865 -2.54836,-2.5975 -3.82293,-3.89665 -0.34565,2.40264 -0.69155,4.80493 -1.03771,7.20699 -1.3267,-1.3188 -2.65361,-2.63782 -3.98081,-3.95712 -1.59784,-1.019 -3.19588,-2.03821 -4.79422,-3.05771 -1.30743,-0.1298 -2.61507,-0.25985 -3.923,-0.39017 -0.0186,0.32003 -0.0375,0.63979 -0.0567,0.95928 -0.27151,1.27043 -0.54326,2.54054 -0.81529,3.81041 0.21837,0.1705 0.43646,0.34072 0.6543,0.51068 -0.17623,2.21031 -0.35271,4.42027 -0.52946,6.63001 0.34431,2.6e-4 0.68834,2.6e-4 1.03211,0 -0.27415,2.18051 -0.54855,4.36068 -0.82322,6.54062 0.19802,0.0432 0.39577,0.0862 0.59325,0.12889 -0.32639,1.84662 -0.65304,3.69289 -0.97996,5.53894 0.34226,0.22119 0.68425,0.44212 1.02597,0.66278 -0.30274,2.10572 -0.60573,4.2111 -0.90899,6.31625 0.38407,-0.10504 0.76787,-0.21034 1.15141,-0.31591 0.1846,2.50441 0.36894,5.00846 0.55301,7.51229 0.66029,0.34878 1.32029,0.69728 1.98004,1.04552 -0.31203,0.14036 -0.6243,0.28044 -0.93685,0.42026 -2.96709,-0.0414 -5.93433,-0.0831 -8.90189,-0.12497 -0.4106,-0.081 -0.82145,-0.16234 -1.23258,-0.24391 z"
           inkscape:path-effect="#path-effect916" />
        <g
           id="g5298"
           transform="matrix(1.4089357,0,0,1.4089357,-106.4997,-49.641723)">
          <path
             id="path3556"
             style="fill:#cccccc;stroke-width:13.0251;stroke-linecap:round;stroke-linejoin:round"
             d="m 251.81721,161.04043 c 0,0.6014 -0.48753,1.26341 -1.08893,1.26341 -0.6014,0 -1.08893,-0.66201 -1.08893,-1.26341 0,-0.56752 0.24075,-1.03365 0.79505,-1.08435 0.0331,-0.003 0.25956,0.0808 0.29339,0.0808 0.0292,0 0.33387,-0.0838 0.36254,-0.0823 0.56082,0.0442 0.72688,0.51333 0.72688,1.08552 z"
             sodipodi:nodetypes="ssssssss" />
          <path
             style="fill:#999999;stroke:none;stroke-width:0.1;stroke-linecap:butt;stroke-linejoin:miter;stroke-miterlimit:4;stroke-dasharray:none;stroke-opacity:1"
             d="m 250.25978,159.69907 c 0.0635,0.0316 0.19014,0.0948 0.28241,0.15609 0.0923,0.0613 0.15017,0.12074 0.21683,0.12237 0.0667,0.002 0.14236,-0.0543 0.24497,-0.1039 0.1026,-0.0496 0.23204,-0.093 0.36482,-0.13848 0.13279,-0.0455 0.2689,-0.093 0.40956,-0.14465 0.14065,-0.0517 0.28585,-0.10743 0.38436,-0.14516 0.0985,-0.0377 0.15037,-0.0574 0.17909,-0.0627 0.0287,-0.005 0.0342,0.004 0.009,0.0235 -0.0251,0.0199 -0.0808,0.0513 -0.18412,0.0947 -0.10328,0.0435 -0.25422,0.099 -0.37604,0.14032 -0.12183,0.0413 -0.21452,0.0683 -0.28676,0.095 -0.0722,0.0267 -0.1239,0.053 -0.19879,0.079 -0.0749,0.026 -0.17295,0.0517 -0.25117,0.0868 -0.0782,0.0351 -0.13638,0.0796 -0.12708,0.0899 0.009,0.0103 0.086,-0.0136 0.1398,-0.0219 0.0538,-0.008 0.0844,-9.9e-4 0.10786,0.0103 0.0235,0.0113 0.0398,0.0264 0.0219,0.0408 -0.0179,0.0144 -0.07,0.0284 -0.1168,0.0528 -0.0468,0.0245 -0.0881,0.0594 -0.11884,0.0958 -0.0308,0.0365 -0.0511,0.0744 -0.0813,0.0733 -0.0302,-0.001 -0.0708,-0.0415 -0.11172,-0.0688 -0.041,-0.0274 -0.0824,-0.0415 -0.13055,-0.0578 -0.0482,-0.0163 -0.10323,-0.0348 -0.13791,-0.0618 -0.0347,-0.027 -0.0488,-0.0627 -0.0377,-0.0759 0.0112,-0.0132 0.0475,-0.004 0.0969,0.012 0.0494,0.0156 0.11198,0.037 0.12251,0.0313 0.0105,-0.006 -0.0309,-0.0387 -0.0836,-0.0731 -0.0526,-0.0344 -0.11662,-0.0704 -0.18365,-0.10913 -0.067,-0.0387 -0.13717,-0.0803 -0.17404,-0.10943 -0.0369,-0.0291 -0.0402,-0.046 -0.042,-0.0546 -0.002,-0.009 -0.002,-0.009 0.0618,0.023 z"
             id="path5113"
             inkscape:original-d="m 250.19629,159.66743 c 0.12692,0.0634 0.25358,0.1265 0.37997,0.18935 0.0582,0.0597 0.1161,0.11912 0.17375,0.17828 0.0759,-0.0556 0.15159,-0.1115 0.227,-0.16765 0.12969,-0.0431 0.25912,-0.0865 0.38829,-0.13012 0.1364,-0.0473 0.27253,-0.0948 0.40839,-0.14262 0.14546,-0.0555 0.29065,-0.11128 0.43558,-0.16732 0.0521,-0.0194 0.10396,-0.0391 0.15554,-0.0591 0.006,0.009 0.0113,0.018 0.0166,0.0266 -0.0554,0.0316 -0.11114,0.0629 -0.1671,0.094 -0.15066,0.0558 -0.30159,0.11139 -0.45277,0.16669 -0.0925,0.0273 -0.1852,0.0543 -0.27819,0.0811 -0.0514,0.0266 -0.10308,0.0529 -0.15502,0.079 -0.0979,0.026 -0.19598,0.0516 -0.29437,0.0771 -0.0579,0.0448 -0.11606,0.0893 -0.17449,0.13356 0.0769,-0.0237 0.15363,-0.0475 0.23004,-0.0717 0.0309,0.008 0.0616,0.0148 0.092,0.0218 0.0166,0.0154 0.0329,0.0305 0.049,0.0454 -0.0518,0.0142 -0.10394,0.0282 -0.15631,0.0419 -0.041,0.0352 -0.0823,0.0701 -0.12377,0.10472 -0.02,0.0382 -0.0403,0.0761 -0.0609,0.11383 -0.0402,-0.0401 -0.0807,-0.0805 -0.1215,-0.1211 -0.0412,-0.0139 -0.0826,-0.0281 -0.12427,-0.0425 -0.0547,-0.0182 -0.10974,-0.0367 -0.16501,-0.0554 -0.0139,-0.0355 -0.028,-0.0712 -0.0425,-0.10716 0.0366,0.01 0.0729,0.0196 0.109,0.0289 0.0628,0.0217 0.12534,0.0432 0.18761,0.0644 -0.0412,-0.0327 -0.0826,-0.0657 -0.12435,-0.0989 -0.0636,-0.0356 -0.12755,-0.0716 -0.19172,-0.10773 -0.0699,-0.0413 -0.14003,-0.0829 -0.21045,-0.12468 -0.003,-0.0166 -0.006,-0.0335 -0.0101,-0.0507 z"
             inkscape:path-effect="#path-effect5115" />
        </g>
        <g
           id="g5322"
           transform="matrix(1.4161934,0,0,1.4161934,-101.06181,-79.044682)">
          <path
             id="path5318"
             style="fill:#cccccc;stroke-width:13.0251;stroke-linecap:round;stroke-linejoin:round"
             d="m 251.81721,161.04043 c 0,0.6014 -0.48753,1.26341 -1.08893,1.26341 -0.6014,0 -1.08893,-0.66201 -1.08893,-1.26341 0,-0.56752 0.24075,-1.03365 0.79505,-1.08435 0.0331,-0.003 0.25956,0.0808 0.29339,0.0808 0.0292,0 0.33387,-0.0838 0.36254,-0.0823 0.56082,0.0442 0.72688,0.51333 0.72688,1.08552 z"
             sodipodi:nodetypes="ssssssss" />
          <path
             style="fill:#999999;stroke:none;stroke-width:0.1;stroke-linecap:butt;stroke-linejoin:miter;stroke-miterlimit:4;stroke-dasharray:none;stroke-opacity:1"
             d="m 250.25978,159.69907 c 0.0635,0.0316 0.19014,0.0948 0.28241,0.15609 0.0923,0.0613 0.15017,0.12074 0.21683,0.12237 0.0667,0.002 0.14236,-0.0543 0.24497,-0.1039 0.1026,-0.0496 0.23204,-0.093 0.36482,-0.13848 0.13279,-0.0455 0.2689,-0.093 0.40956,-0.14465 0.14065,-0.0517 0.28585,-0.10743 0.38436,-0.14516 0.0985,-0.0377 0.15037,-0.0574 0.17909,-0.0627 0.0287,-0.005 0.0342,0.004 0.009,0.0235 -0.0251,0.0199 -0.0808,0.0513 -0.18412,0.0947 -0.10328,0.0435 -0.25422,0.099 -0.37604,0.14032 -0.12183,0.0413 -0.21452,0.0683 -0.28676,0.095 -0.0722,0.0267 -0.1239,0.053 -0.19879,0.079 -0.0749,0.026 -0.17295,0.0517 -0.25117,0.0868 -0.0782,0.0351 -0.13638,0.0796 -0.12708,0.0899 0.009,0.0103 0.086,-0.0136 0.1398,-0.0219 0.0538,-0.008 0.0844,-9.9e-4 0.10786,0.0103 0.0235,0.0113 0.0398,0.0264 0.0219,0.0408 -0.0179,0.0144 -0.07,0.0284 -0.1168,0.0528 -0.0468,0.0245 -0.0881,0.0594 -0.11884,0.0958 -0.0308,0.0365 -0.0511,0.0744 -0.0813,0.0733 -0.0302,-0.001 -0.0708,-0.0415 -0.11172,-0.0688 -0.041,-0.0274 -0.0824,-0.0415 -0.13055,-0.0578 -0.0482,-0.0163 -0.10323,-0.0348 -0.13791,-0.0618 -0.0347,-0.027 -0.0488,-0.0627 -0.0377,-0.0759 0.0112,-0.0132 0.0475,-0.004 0.0969,0.012 0.0494,0.0156 0.11198,0.037 0.12251,0.0313 0.0105,-0.006 -0.0309,-0.0387 -0.0836,-0.0731 -0.0526,-0.0344 -0.11662,-0.0704 -0.18365,-0.10913 -0.067,-0.0387 -0.13717,-0.0803 -0.17404,-0.10943 -0.0369,-0.0291 -0.0402,-0.046 -0.042,-0.0546 -0.002,-0.009 -0.002,-0.009 0.0618,0.023 z"
             id="path5320"
             inkscape:original-d="m 250.19629,159.66743 c 0.12692,0.0634 0.25358,0.1265 0.37997,0.18935 0.0582,0.0597 0.1161,0.11912 0.17375,0.17828 0.0759,-0.0556 0.15159,-0.1115 0.227,-0.16765 0.12969,-0.0431 0.25912,-0.0865 0.38829,-0.13012 0.1364,-0.0473 0.27253,-0.0948 0.40839,-0.14262 0.14546,-0.0555 0.29065,-0.11128 0.43558,-0.16732 0.0521,-0.0194 0.10396,-0.0391 0.15554,-0.0591 0.006,0.009 0.0113,0.018 0.0166,0.0266 -0.0554,0.0316 -0.11114,0.0629 -0.1671,0.094 -0.15066,0.0558 -0.30159,0.11139 -0.45277,0.16669 -0.0925,0.0273 -0.1852,0.0543 -0.27819,0.0811 -0.0514,0.0266 -0.10308,0.0529 -0.15502,0.079 -0.0979,0.026 -0.19598,0.0516 -0.29437,0.0771 -0.0579,0.0448 -0.11606,0.0893 -0.17449,0.13356 0.0769,-0.0237 0.15363,-0.0475 0.23004,-0.0717 0.0309,0.008 0.0616,0.0148 0.092,0.0218 0.0166,0.0154 0.0329,0.0305 0.049,0.0454 -0.0518,0.0142 -0.10394,0.0282 -0.15631,0.0419 -0.041,0.0352 -0.0823,0.0701 -0.12377,0.10472 -0.02,0.0382 -0.0403,0.0761 -0.0609,0.11383 -0.0402,-0.0401 -0.0807,-0.0805 -0.1215,-0.1211 -0.0412,-0.0139 -0.0826,-0.0281 -0.12427,-0.0425 -0.0547,-0.0182 -0.10974,-0.0367 -0.16501,-0.0554 -0.0139,-0.0355 -0.028,-0.0712 -0.0425,-0.10716 0.0366,0.01 0.0729,0.0196 0.109,0.0289 0.0628,0.0217 0.12534,0.0432 0.18761,0.0644 -0.0412,-0.0327 -0.0826,-0.0657 -0.12435,-0.0989 -0.0636,-0.0356 -0.12755,-0.0716 -0.19172,-0.10773 -0.0699,-0.0413 -0.14003,-0.0829 -0.21045,-0.12468 -0.003,-0.0166 -0.006,-0.0335 -0.0101,-0.0507 z"
             inkscape:path-effect="#path-effect5326" />
        </g>
        <g
           id="g5332"
           transform="matrix(1.4161934,0,0,1.4161934,-99.956183,-75.733499)">
          <path
             id="path5328"
             style="fill:#cccccc;stroke-width:13.0251;stroke-linecap:round;stroke-linejoin:round"
             d="m 251.81721,161.04043 c 0,0.6014 -0.48753,1.26341 -1.08893,1.26341 -0.6014,0 -1.08893,-0.66201 -1.08893,-1.26341 0,-0.56752 0.24075,-1.03365 0.79505,-1.08435 0.0331,-0.003 0.25956,0.0808 0.29339,0.0808 0.0292,0 0.33387,-0.0838 0.36254,-0.0823 0.56082,0.0442 0.72688,0.51333 0.72688,1.08552 z"
             sodipodi:nodetypes="ssssssss" />
          <path
             style="fill:#999999;stroke:none;stroke-width:0.1;stroke-linecap:butt;stroke-linejoin:miter;stroke-miterlimit:4;stroke-dasharray:none;stroke-opacity:1"
             d="m 250.25978,159.69907 c 0.0635,0.0316 0.19014,0.0948 0.28241,0.15609 0.0923,0.0613 0.15017,0.12074 0.21683,0.12237 0.0667,0.002 0.14236,-0.0543 0.24497,-0.1039 0.1026,-0.0496 0.23204,-0.093 0.36482,-0.13848 0.13279,-0.0455 0.2689,-0.093 0.40956,-0.14465 0.14065,-0.0517 0.28585,-0.10743 0.38436,-0.14516 0.0985,-0.0377 0.15037,-0.0574 0.17909,-0.0627 0.0287,-0.005 0.0342,0.004 0.009,0.0235 -0.0251,0.0199 -0.0808,0.0513 -0.18412,0.0947 -0.10328,0.0435 -0.25422,0.099 -0.37604,0.14032 -0.12183,0.0413 -0.21452,0.0683 -0.28676,0.095 -0.0722,0.0267 -0.1239,0.053 -0.19879,0.079 -0.0749,0.026 -0.17295,0.0517 -0.25117,0.0868 -0.0782,0.0351 -0.13638,0.0796 -0.12708,0.0899 0.009,0.0103 0.086,-0.0136 0.1398,-0.0219 0.0538,-0.008 0.0844,-9.9e-4 0.10786,0.0103 0.0235,0.0113 0.0398,0.0264 0.0219,0.0408 -0.0179,0.0144 -0.07,0.0284 -0.1168,0.0528 -0.0468,0.0245 -0.0881,0.0594 -0.11884,0.0958 -0.0308,0.0365 -0.0511,0.0744 -0.0813,0.0733 -0.0302,-0.001 -0.0708,-0.0415 -0.11172,-0.0688 -0.041,-0.0274 -0.0824,-0.0415 -0.13055,-0.0578 -0.0482,-0.0163 -0.10323,-0.0348 -0.13791,-0.0618 -0.0347,-0.027 -0.0488,-0.0627 -0.0377,-0.0759 0.0112,-0.0132 0.0475,-0.004 0.0969,0.012 0.0494,0.0156 0.11198,0.037 0.12251,0.0313 0.0105,-0.006 -0.0309,-0.0387 -0.0836,-0.0731 -0.0526,-0.0344 -0.11662,-0.0704 -0.18365,-0.10913 -0.067,-0.0387 -0.13717,-0.0803 -0.17404,-0.10943 -0.0369,-0.0291 -0.0402,-0.046 -0.042,-0.0546 -0.002,-0.009 -0.002,-0.009 0.0618,0.023 z"
             id="path5330"
             inkscape:original-d="m 250.19629,159.66743 c 0.12692,0.0634 0.25358,0.1265 0.37997,0.18935 0.0582,0.0597 0.1161,0.11912 0.17375,0.17828 0.0759,-0.0556 0.15159,-0.1115 0.227,-0.16765 0.12969,-0.0431 0.25912,-0.0865 0.38829,-0.13012 0.1364,-0.0473 0.27253,-0.0948 0.40839,-0.14262 0.14546,-0.0555 0.29065,-0.11128 0.43558,-0.16732 0.0521,-0.0194 0.10396,-0.0391 0.15554,-0.0591 0.006,0.009 0.0113,0.018 0.0166,0.0266 -0.0554,0.0316 -0.11114,0.0629 -0.1671,0.094 -0.15066,0.0558 -0.30159,0.11139 -0.45277,0.16669 -0.0925,0.0273 -0.1852,0.0543 -0.27819,0.0811 -0.0514,0.0266 -0.10308,0.0529 -0.15502,0.079 -0.0979,0.026 -0.19598,0.0516 -0.29437,0.0771 -0.0579,0.0448 -0.11606,0.0893 -0.17449,0.13356 0.0769,-0.0237 0.15363,-0.0475 0.23004,-0.0717 0.0309,0.008 0.0616,0.0148 0.092,0.0218 0.0166,0.0154 0.0329,0.0305 0.049,0.0454 -0.0518,0.0142 -0.10394,0.0282 -0.15631,0.0419 -0.041,0.0352 -0.0823,0.0701 -0.12377,0.10472 -0.02,0.0382 -0.0403,0.0761 -0.0609,0.11383 -0.0402,-0.0401 -0.0807,-0.0805 -0.1215,-0.1211 -0.0412,-0.0139 -0.0826,-0.0281 -0.12427,-0.0425 -0.0547,-0.0182 -0.10974,-0.0367 -0.16501,-0.0554 -0.0139,-0.0355 -0.028,-0.0712 -0.0425,-0.10716 0.0366,0.01 0.0729,0.0196 0.109,0.0289 0.0628,0.0217 0.12534,0.0432 0.18761,0.0644 -0.0412,-0.0327 -0.0826,-0.0657 -0.12435,-0.0989 -0.0636,-0.0356 -0.12755,-0.0716 -0.19172,-0.10773 -0.0699,-0.0413 -0.14003,-0.0829 -0.21045,-0.12468 -0.003,-0.0166 -0.006,-0.0335 -0.0101,-0.0507 z"
             inkscape:path-effect="#path-effect5336" />
        </g>
        <g
           id="g5342"
           transform="matrix(1.2264594,0.70809669,-0.70809669,1.2264594,59.691588,-223.91208)">
          <path
             id="path5338"
             style="fill:#cccccc;stroke-width:13.0251;stroke-linecap:round;stroke-linejoin:round"
             d="m 251.81721,161.04043 c 0,0.6014 -0.48753,1.26341 -1.08893,1.26341 -0.6014,0 -1.08893,-0.66201 -1.08893,-1.26341 0,-0.56752 0.24075,-1.03365 0.79505,-1.08435 0.0331,-0.003 0.25956,0.0808 0.29339,0.0808 0.0292,0 0.33387,-0.0838 0.36254,-0.0823 0.56082,0.0442 0.72688,0.51333 0.72688,1.08552 z"
             sodipodi:nodetypes="ssssssss" />
          <path
             style="fill:#999999;stroke:none;stroke-width:0.1;stroke-linecap:butt;stroke-linejoin:miter;stroke-miterlimit:4;stroke-dasharray:none;stroke-opacity:1"
             d="m 250.25978,159.69907 c 0.0635,0.0316 0.19014,0.0948 0.28241,0.15609 0.0923,0.0613 0.15017,0.12074 0.21683,0.12237 0.0667,0.002 0.14236,-0.0543 0.24497,-0.1039 0.1026,-0.0496 0.23204,-0.093 0.36482,-0.13848 0.13279,-0.0455 0.2689,-0.093 0.40956,-0.14465 0.14065,-0.0517 0.28585,-0.10743 0.38436,-0.14516 0.0985,-0.0377 0.15037,-0.0574 0.17909,-0.0627 0.0287,-0.005 0.0342,0.004 0.009,0.0235 -0.0251,0.0199 -0.0808,0.0513 -0.18412,0.0947 -0.10328,0.0435 -0.25422,0.099 -0.37604,0.14032 -0.12183,0.0413 -0.21452,0.0683 -0.28676,0.095 -0.0722,0.0267 -0.1239,0.053 -0.19879,0.079 -0.0749,0.026 -0.17295,0.0517 -0.25117,0.0868 -0.0782,0.0351 -0.13638,0.0796 -0.12708,0.0899 0.009,0.0103 0.086,-0.0136 0.1398,-0.0219 0.0538,-0.008 0.0844,-9.9e-4 0.10786,0.0103 0.0235,0.0113 0.0398,0.0264 0.0219,0.0408 -0.0179,0.0144 -0.07,0.0284 -0.1168,0.0528 -0.0468,0.0245 -0.0881,0.0594 -0.11884,0.0958 -0.0308,0.0365 -0.0511,0.0744 -0.0813,0.0733 -0.0302,-0.001 -0.0708,-0.0415 -0.11172,-0.0688 -0.041,-0.0274 -0.0824,-0.0415 -0.13055,-0.0578 -0.0482,-0.0163 -0.10323,-0.0348 -0.13791,-0.0618 -0.0347,-0.027 -0.0488,-0.0627 -0.0377,-0.0759 0.0112,-0.0132 0.0475,-0.004 0.0969,0.012 0.0494,0.0156 0.11198,0.037 0.12251,0.0313 0.0105,-0.006 -0.0309,-0.0387 -0.0836,-0.0731 -0.0526,-0.0344 -0.11662,-0.0704 -0.18365,-0.10913 -0.067,-0.0387 -0.13717,-0.0803 -0.17404,-0.10943 -0.0369,-0.0291 -0.0402,-0.046 -0.042,-0.0546 -0.002,-0.009 -0.002,-0.009 0.0618,0.023 z"
             id="path5340"
             inkscape:original-d="m 250.19629,159.66743 c 0.12692,0.0634 0.25358,0.1265 0.37997,0.18935 0.0582,0.0597 0.1161,0.11912 0.17375,0.17828 0.0759,-0.0556 0.15159,-0.1115 0.227,-0.16765 0.12969,-0.0431 0.25912,-0.0865 0.38829,-0.13012 0.1364,-0.0473 0.27253,-0.0948 0.40839,-0.14262 0.14546,-0.0555 0.29065,-0.11128 0.43558,-0.16732 0.0521,-0.0194 0.10396,-0.0391 0.15554,-0.0591 0.006,0.009 0.0113,0.018 0.0166,0.0266 -0.0554,0.0316 -0.11114,0.0629 -0.1671,0.094 -0.15066,0.0558 -0.30159,0.11139 -0.45277,0.16669 -0.0925,0.0273 -0.1852,0.0543 -0.27819,0.0811 -0.0514,0.0266 -0.10308,0.0529 -0.15502,0.079 -0.0979,0.026 -0.19598,0.0516 -0.29437,0.0771 -0.0579,0.0448 -0.11606,0.0893 -0.17449,0.13356 0.0769,-0.0237 0.15363,-0.0475 0.23004,-0.0717 0.0309,0.008 0.0616,0.0148 0.092,0.0218 0.0166,0.0154 0.0329,0.0305 0.049,0.0454 -0.0518,0.0142 -0.10394,0.0282 -0.15631,0.0419 -0.041,0.0352 -0.0823,0.0701 -0.12377,0.10472 -0.02,0.0382 -0.0403,0.0761 -0.0609,0.11383 -0.0402,-0.0401 -0.0807,-0.0805 -0.1215,-0.1211 -0.0412,-0.0139 -0.0826,-0.0281 -0.12427,-0.0425 -0.0547,-0.0182 -0.10974,-0.0367 -0.16501,-0.0554 -0.0139,-0.0355 -0.028,-0.0712 -0.0425,-0.10716 0.0366,0.01 0.0729,0.0196 0.109,0.0289 0.0628,0.0217 0.12534,0.0432 0.18761,0.0644 -0.0412,-0.0327 -0.0826,-0.0657 -0.12435,-0.0989 -0.0636,-0.0356 -0.12755,-0.0716 -0.19172,-0.10773 -0.0699,-0.0413 -0.14003,-0.0829 -0.21045,-0.12468 -0.003,-0.0166 -0.006,-0.0335 -0.0101,-0.0507 z"
             inkscape:path-effect="#path-effect5346" />
        </g>
        <path
           style="fill:none;stroke:#999999;stroke-width:0.264583;stroke-linecap:round;stroke-linejoin:miter;stroke-miterlimit:4;stroke-dasharray:3.175, 3.175;stroke-dashoffset:0.0529166;stroke-opacity:1"
           d="m 253.82383,152.17178 c -2.1127,2.94445 -3.83971,6.1653 -5.12307,9.55444 -1.64408,4.34175 -2.55698,8.95936 -2.68874,13.6001"
           id="path5795"
           sodipodi:nodetypes="csc"
           inkscape:original-d="m 253.82383,152.17178 c -1.20292,3.57422 -3.91962,5.98074 -5.12307,9.55444 -1.20345,3.57369 -2.2976,9.01542 -2.68874,13.6001"
           inkscape:path-effect="#path-effect5797" />
        <path
           style="fill:none;stroke:#999999;stroke-width:0.21798;stroke-linecap:round;stroke-linejoin:miter;stroke-miterlimit:4;stroke-dasharray:2.61576, 2.61576;stroke-dashoffset:0.0435959;stroke-opacity:1"
           d="m 254.53988,155.76412 c -1.66273,3.19185 -2.97258,6.56737 -3.89804,10.04532 -0.94063,3.53496 -1.48403,7.17545 -1.6167,10.83101"
           id="path5912"
           sodipodi:nodetypes="csc"
           inkscape:original-d="m 254.53988,155.76412 c -0.99104,2.94466 -2.90657,7.10109 -3.89804,10.04532 -0.99148,2.94422 -1.29445,7.05387 -1.6167,10.83101"
           inkscape:path-effect="#path-effect5916" />
        <path
           id="path6628"
           style="fill:#cccccc;stroke:none;stroke-width:0.207288px;stroke-linecap:butt;stroke-linejoin:round;stroke-opacity:1"
           d="m 243.88545,178.35277 c -0.30018,-0.002 -0.60054,0.0415 -0.88665,0.13232 -0.5388,0.17127 -1.0242,0.50731 -1.37409,0.95142 -0.3499,0.44411 -0.56281,0.99437 -0.60325,1.55831 -0.52111,0.10257 -1.00413,0.38971 -1.34333,0.79838 -0.3392,0.40868 -0.53255,0.93613 -0.53725,1.46722 -0.005,0.47618 0.14166,0.9526 0.41215,1.34453 0.27044,0.39195 0.66425,0.69738 1.11094,0.86237 l 8.8033,-0.0332 c 0.51596,-0.15482 0.97119,-0.50298 1.25588,-0.96033 0.28469,-0.45734 0.39616,-1.01969 0.30729,-1.55102 -0.0868,-0.51924 -0.36382,-1.00459 -0.76681,-1.34332 -0.403,-0.33873 -0.92862,-0.52821 -1.45507,-0.52429 -0.0777,-0.52505 -0.38428,-1.01215 -0.82429,-1.30892 -0.51914,-0.35014 -1.21485,-0.42241 -1.79477,-0.18624 -0.34551,-0.49106 -0.8504,-0.86783 -1.41943,-1.05952 -0.28451,-0.0959 -0.58445,-0.14516 -0.88462,-0.14778 z m -0.82025,2.60527 a 0.22132565,0.22132565 0 0 1 0.15668,0.0652 l 0.42065,0.42026 0.42106,-0.42026 a 0.22132565,0.22132565 0 0 1 0.31377,0 0.22132565,0.22132565 0 0 1 0,0.31216 l -0.42106,0.42106 0.42106,0.42065 a 0.22132565,0.22132565 0 0 1 0,0.31376 0.22132565,0.22132565 0 0 1 -0.31377,0 l -0.42106,-0.42065 -0.42065,0.42065 a 0.22132565,0.22132565 0 0 1 -0.31376,0 0.22132565,0.22132565 0 0 1 0,-0.31376 l 0.42105,-0.42065 -0.42105,-0.42106 a 0.22132565,0.22132565 0 0 1 0,-0.31216 0.22132565,0.22132565 0 0 1 0.15708,-0.0652 z m 2.84011,0 a 0.22132565,0.22132565 0 0 1 0.15667,0.0652 l 0.42065,0.42066 0.42107,-0.42066 a 0.22132565,0.22132565 0 0 1 0.31213,0 0.22132565,0.22132565 0 0 1 0,0.31216 l -0.42065,0.42106 0.42065,0.42065 a 0.22132565,0.22132565 0 0 1 0,0.31376 0.22132565,0.22132565 0 0 1 -0.31213,0 l -0.42107,-0.42105 -0.42065,0.42105 a 0.22132565,0.22132565 0 0 1 -0.31377,0 0.22132565,0.22132565 0 0 1 0,-0.31376 l 0.42105,-0.42065 -0.42105,-0.42106 a 0.22132565,0.22132565 0 0 1 0,-0.31216 0.22132565,0.22132565 0 0 1 0.1571,-0.0652 z m -0.81336,2.17695 c 0.71968,0.0278 1.41722,0.35021 1.90365,0.88138 a 0.18215298,0.18215298 0 0 1 -0.0102,0.25869 0.18215298,0.18215298 0 0 1 -0.25709,-0.0117 c -0.41838,-0.45689 -1.03036,-0.73975 -1.6494,-0.76357 -0.67878,-0.0261 -1.37122,0.26259 -1.82998,0.76357 a 0.18215298,0.18215298 0 0 1 -0.25707,0.0117 0.18215298,0.18215298 0 0 1 -0.0117,-0.25869 c 0.53407,-0.58321 1.32154,-0.91179 2.11176,-0.88138 z" />
        <path
           id="path11142"
           style="color:#000000;fill:#000000;fill-opacity:0;stroke-linecap:round"
           d="m 242.89258,188.5332 c -1.00864,-0.0388 -2.01363,0.38059 -2.69531,1.125 a 0.2325,0.2325 0 0 0 0.0137,0.33008 0.2325,0.2325 0 0 0 0.32812,-0.0156 c 0.58556,-0.63945 1.46954,-1.00797 2.33594,-0.97461 0.79014,0.0304 1.57146,0.39144 2.10547,0.97461 a 0.2325,0.2325 0 0 0 0.32812,0.0156 0.2325,0.2325 0 0 0 0.0137,-0.33008 c -0.62086,-0.67799 -1.51107,-1.08962 -2.42969,-1.125 z m 1.03826,-2.77865 a 0.28249999,0.28249999 0 0 0 -0.2005,0.0832 0.28249999,0.28249999 0 0 0 0,0.39843 l 0.53744,0.53743 -0.53744,0.53692 a 0.28249999,0.28249999 0 0 0 0,0.40049 0.28249999,0.28249999 0 0 0 0.40049,0 l 0.53692,-0.53744 0.53744,0.53744 a 0.28249999,0.28249999 0 0 0 0.39842,0 0.28249999,0.28249999 0 0 0 0,-0.40049 l -0.53692,-0.53692 0.53692,-0.53743 a 0.28249999,0.28249999 0 0 0 0,-0.39843 0.28249999,0.28249999 0 0 0 -0.39842,0 l -0.53744,0.53692 -0.53692,-0.53692 a 0.28249999,0.28249999 0 0 0 -0.19999,-0.0832 z m -3.6251,0 a 0.28249999,0.28249999 0 0 0 -0.2005,0.0832 0.28249999,0.28249999 0 0 0 0,0.39843 l 0.53743,0.53743 -0.53743,0.53692 a 0.28249999,0.28249999 0 0 0 0,0.40049 0.28249999,0.28249999 0 0 0 0.40049,0 l 0.53692,-0.53692 0.53743,0.53692 a 0.28249999,0.28249999 0 0 0 0.4005,0 0.28249999,0.28249999 0 0 0 0,-0.40049 l -0.53744,-0.53692 0.53744,-0.53743 a 0.28249999,0.28249999 0 0 0 0,-0.39843 0.28249999,0.28249999 0 0 0 -0.4005,0 l -0.53743,0.5364 -0.53692,-0.5364 a 0.28249999,0.28249999 0 0 0 -0.19999,-0.0832 z" />
        <path
           id="path2143"
           style="color:#000000;fill:#000000;fill-opacity:0;stroke-linecap:round"
           d="m 242.89258,188.5332 c -1.00864,-0.0388 -2.01363,0.38059 -2.69531,1.125 a 0.2325,0.2325 0 0 0 0.0137,0.33008 0.2325,0.2325 0 0 0 0.32812,-0.0156 c 0.58556,-0.63945 1.46954,-1.00797 2.33594,-0.97461 0.79014,0.0304 1.57146,0.39144 2.10547,0.97461 a 0.2325,0.2325 0 0 0 0.32812,0.0156 0.2325,0.2325 0 0 0 0.0137,-0.33008 c -0.62086,-0.67799 -1.51107,-1.08962 -2.42969,-1.125 z m 1.03826,-2.77865 a 0.28249999,0.28249999 0 0 0 -0.2005,0.0832 0.28249999,0.28249999 0 0 0 0,0.39843 l 0.53744,0.53743 -0.53744,0.53692 a 0.28249999,0.28249999 0 0 0 0,0.40049 0.28249999,0.28249999 0 0 0 0.40049,0 l 0.53692,-0.53744 0.53744,0.53744 a 0.28249999,0.28249999 0 0 0 0.39842,0 0.28249999,0.28249999 0 0 0 0,-0.40049 l -0.53692,-0.53692 0.53692,-0.53743 a 0.28249999,0.28249999 0 0 0 0,-0.39843 0.28249999,0.28249999 0 0 0 -0.39842,0 l -0.53744,0.53692 -0.53692,-0.53692 a 0.28249999,0.28249999 0 0 0 -0.19999,-0.0832 z m -3.6251,0 a 0.28249999,0.28249999 0 0 0 -0.2005,0.0832 0.28249999,0.28249999 0 0 0 0,0.39843 l 0.53743,0.53743 -0.53743,0.53692 a 0.28249999,0.28249999 0 0 0 0,0.40049 0.28249999,0.28249999 0 0 0 0.40049,0 l 0.53692,-0.53692 0.53743,0.53692 a 0.28249999,0.28249999 0 0 0 0.4005,0 0.28249999,0.28249999 0 0 0 0,-0.40049 l -0.53744,-0.53692 0.53744,-0.53743 a 0.28249999,0.28249999 0 0 0 0,-0.39843 0.28249999,0.28249999 0 0 0 -0.4005,0 l -0.53743,0.5364 -0.53692,-0.5364 a 0.28249999,0.28249999 0 0 0 -0.19999,-0.0832 z" />
      </g>
    </g>
    <g
       id="g2095"
       transform="matrix(1.4089357,0,0,1.4089357,-106.4997,-49.641723)" />
    <g
       id="g2105"
       transform="matrix(1.4161934,0,0,1.4161934,-101.06181,-79.044682)" />
    <g
       id="g2115"
       transform="matrix(1.4161934,0,0,1.4161934,-99.956183,-75.733499)" />
    <g
       id="g2125"
       transform="matrix(1.2264594,0.70809669,-0.70809669,1.2264594,59.691588,-223.91208)" />
  </g>
</svg>
